<svg width="61" height="79" viewBox="0 0 61 79" fill="none" xmlns="http://www.w3.org/2000/svg">
<path d="M58.44 23.3233C58.44 19.1881 55.009 15.8359 50.7765 15.8359H9.66352C5.43101 15.8359 2 19.1881 2 23.3233" stroke="url(#paint0_angular_2_5115)" stroke-width="3.5" stroke-miterlimit="10"/>
<path d="M4 61.1953C4 65.1965 7.25233 68.4407 11.2634 68.4407H50.2295C54.2406 68.4407 57.4929 65.1965 57.4929 61.1953" stroke="url(#paint1_angular_2_5115)" stroke-width="3.5" stroke-miterlimit="10"/>
<path d="M18.5782 26.5H15V57.2272H18.5782V26.5Z" fill="url(#paint2_angular_2_5115)"/>
<path d="M25.2315 26.5H21.6533V57.2272H25.2315V26.5Z" fill="url(#paint3_angular_2_5115)"/>
<path d="M32.0099 26.5H28.4316V57.2272H32.0099V26.5Z" fill="url(#paint4_angular_2_5115)"/>
<path d="M38.6007 26.5H35.0225V57.2272H38.6007V26.5Z" fill="url(#paint5_angular_2_5115)"/>
<path d="M45.3487 26.5H41.7705V57.2272H45.3487V26.5Z" fill="url(#paint6_angular_2_5115)"/>
<path d="M18.5782 73.0918H15V78.5H18.5782V73.0918Z" fill="url(#paint7_angular_2_5115)"/>
<path d="M25.2315 73.0918H21.6533V78.5H25.2315V73.0918Z" fill="url(#paint8_angular_2_5115)"/>
<path d="M32.0108 73.0918H28.4326V78.5H32.0108V73.0918Z" fill="url(#paint9_angular_2_5115)"/>
<path d="M38.6017 73.0918H35.0234V78.5H38.6017V73.0918Z" fill="url(#paint10_angular_2_5115)"/>
<path d="M45.3487 73.0918H41.7705V78.5H45.3487V73.0918Z" fill="url(#paint11_angular_2_5115)"/>
<path d="M25.2296 0.5H21.6514V5.90822H25.2296V0.5Z" fill="url(#paint12_angular_2_5115)"/>
<path d="M32.0099 0.5H28.4316V5.90822H32.0099V0.5Z" fill="url(#paint13_angular_2_5115)"/>
<path d="M38.5997 0.5H35.0215V5.90822H38.5997V0.5Z" fill="url(#paint14_angular_2_5115)"/>
<path d="M48.4863 24.0694V20.5L12.9999 20.5V24.0694L48.4863 24.0694Z" fill="url(#paint15_angular_2_5115)"/>
<path d="M48 63.8702V60.3008L12.5136 60.3008V63.8702L48 63.8702Z" fill="url(#paint16_angular_2_5115)"/>
<path d="M48 11.3438V7.77441L12.5136 7.77441V11.3438L48 11.3438Z" fill="url(#paint17_angular_2_5115)"/>
<defs>
<radialGradient id="paint0_angular_2_5115" cx="0" cy="0" r="1" gradientUnits="userSpaceOnUse" gradientTransform="translate(30.22 19.5796) rotate(90) scale(3.7437 28.22)">
<stop stop-color="#DBBC80"/>
<stop offset="1" stop-color="#AB8219"/>
</radialGradient>
<radialGradient id="paint1_angular_2_5115" cx="0" cy="0" r="1" gradientUnits="userSpaceOnUse" gradientTransform="translate(30.7464 64.818) rotate(90) scale(3.62271 26.7464)">
<stop stop-color="#DBBC80"/>
<stop offset="1" stop-color="#AB8219"/>
</radialGradient>
<radialGradient id="paint2_angular_2_5115" cx="0" cy="0" r="1" gradientUnits="userSpaceOnUse" gradientTransform="translate(16.7891 41.8636) rotate(90) scale(15.3636 1.78911)">
<stop stop-color="#DBBC80"/>
<stop offset="1" stop-color="#AB8219"/>
</radialGradient>
<radialGradient id="paint3_angular_2_5115" cx="0" cy="0" r="1" gradientUnits="userSpaceOnUse" gradientTransform="translate(23.4424 41.8636) rotate(90) scale(15.3636 1.78911)">
<stop stop-color="#DBBC80"/>
<stop offset="1" stop-color="#AB8219"/>
</radialGradient>
<radialGradient id="paint4_angular_2_5115" cx="0" cy="0" r="1" gradientUnits="userSpaceOnUse" gradientTransform="translate(30.2208 41.8636) rotate(90) scale(15.3636 1.78911)">
<stop stop-color="#DBBC80"/>
<stop offset="1" stop-color="#AB8219"/>
</radialGradient>
<radialGradient id="paint5_angular_2_5115" cx="0" cy="0" r="1" gradientUnits="userSpaceOnUse" gradientTransform="translate(36.8116 41.8636) rotate(90) scale(15.3636 1.78911)">
<stop stop-color="#DBBC80"/>
<stop offset="1" stop-color="#AB8219"/>
</radialGradient>
<radialGradient id="paint6_angular_2_5115" cx="0" cy="0" r="1" gradientUnits="userSpaceOnUse" gradientTransform="translate(43.5596 41.8636) rotate(90) scale(15.3636 1.78911)">
<stop stop-color="#DBBC80"/>
<stop offset="1" stop-color="#AB8219"/>
</radialGradient>
<radialGradient id="paint7_angular_2_5115" cx="0" cy="0" r="1" gradientUnits="userSpaceOnUse" gradientTransform="translate(16.7891 75.7959) rotate(90) scale(2.70411 1.78911)">
<stop stop-color="#DBBC80"/>
<stop offset="1" stop-color="#AB8219"/>
</radialGradient>
<radialGradient id="paint8_angular_2_5115" cx="0" cy="0" r="1" gradientUnits="userSpaceOnUse" gradientTransform="translate(23.4424 75.7959) rotate(90) scale(2.70411 1.78911)">
<stop stop-color="#DBBC80"/>
<stop offset="1" stop-color="#AB8219"/>
</radialGradient>
<radialGradient id="paint9_angular_2_5115" cx="0" cy="0" r="1" gradientUnits="userSpaceOnUse" gradientTransform="translate(30.2217 75.7959) rotate(90) scale(2.70411 1.78911)">
<stop stop-color="#DBBC80"/>
<stop offset="1" stop-color="#AB8219"/>
</radialGradient>
<radialGradient id="paint10_angular_2_5115" cx="0" cy="0" r="1" gradientUnits="userSpaceOnUse" gradientTransform="translate(36.8125 75.7959) rotate(90) scale(2.70411 1.78911)">
<stop stop-color="#DBBC80"/>
<stop offset="1" stop-color="#AB8219"/>
</radialGradient>
<radialGradient id="paint11_angular_2_5115" cx="0" cy="0" r="1" gradientUnits="userSpaceOnUse" gradientTransform="translate(43.5596 75.7959) rotate(90) scale(2.70411 1.78911)">
<stop stop-color="#DBBC80"/>
<stop offset="1" stop-color="#AB8219"/>
</radialGradient>
<radialGradient id="paint12_angular_2_5115" cx="0" cy="0" r="1" gradientUnits="userSpaceOnUse" gradientTransform="translate(23.4405 3.20411) rotate(90) scale(2.70411 1.78911)">
<stop stop-color="#DBBC80"/>
<stop offset="1" stop-color="#AB8219"/>
</radialGradient>
<radialGradient id="paint13_angular_2_5115" cx="0" cy="0" r="1" gradientUnits="userSpaceOnUse" gradientTransform="translate(30.2208 3.20411) rotate(90) scale(2.70411 1.78911)">
<stop stop-color="#DBBC80"/>
<stop offset="1" stop-color="#AB8219"/>
</radialGradient>
<radialGradient id="paint14_angular_2_5115" cx="0" cy="0" r="1" gradientUnits="userSpaceOnUse" gradientTransform="translate(36.8106 3.20411) rotate(90) scale(2.70411 1.78911)">
<stop stop-color="#DBBC80"/>
<stop offset="1" stop-color="#AB8219"/>
</radialGradient>
<radialGradient id="paint15_angular_2_5115" cx="0" cy="0" r="1" gradientUnits="userSpaceOnUse" gradientTransform="translate(30.7431 22.2847) rotate(-180) scale(17.7432 1.78468)">
<stop stop-color="#DBBC80"/>
<stop offset="1" stop-color="#AB8219"/>
</radialGradient>
<radialGradient id="paint16_angular_2_5115" cx="0" cy="0" r="1" gradientUnits="userSpaceOnUse" gradientTransform="translate(30.2568 62.0855) rotate(-180) scale(17.7432 1.78469)">
<stop stop-color="#DBBC80"/>
<stop offset="1" stop-color="#AB8219"/>
</radialGradient>
<radialGradient id="paint17_angular_2_5115" cx="0" cy="0" r="1" gradientUnits="userSpaceOnUse" gradientTransform="translate(30.2568 9.55909) rotate(-180) scale(17.7432 1.78468)">
<stop stop-color="#DBBC80"/>
<stop offset="1" stop-color="#AB8219"/>
</radialGradient>
</defs>
</svg>
