<svg width="737" height="292" viewBox="0 0 737 292" fill="none" xmlns="http://www.w3.org/2000/svg">
<path d="M0.400001 189L93.2 4.59999H161.6L66.8 189H0.400001ZM0.400001 224.2V189L21.2 171H226.8V224.2H0.400001ZM133.6 287V112.2H195.2V287H133.6ZM369.35 291.4C346.683 291.4 326.15 285.267 307.75 273C289.35 260.733 274.817 243.667 264.15 221.8C253.75 199.667 248.55 174.2 248.55 145.4C248.55 116.333 253.75 91 264.15 69.4C274.55 47.5333 288.817 30.6 306.95 18.6C325.083 6.33333 345.617 0.199997 368.55 0.199997C391.75 0.199997 412.417 6.33333 430.55 18.6C448.683 30.6 462.95 47.5333 473.35 69.4C484.017 91.2667 489.35 116.733 489.35 145.8C489.35 174.867 484.017 200.333 473.35 222.2C462.95 244.067 448.683 261.133 430.55 273.4C412.683 285.4 392.283 291.4 369.35 291.4ZM368.95 235.8C380.683 235.8 390.817 232.467 399.35 225.8C407.883 218.867 414.417 208.733 418.95 195.4C423.75 181.8 426.15 165.267 426.15 145.8C426.15 126.067 423.75 109.533 418.95 96.2C414.417 82.8667 407.883 72.8667 399.35 66.2C390.817 59.2667 380.55 55.8 368.55 55.8C357.083 55.8 346.95 59.1333 338.15 65.8C329.617 72.4667 323.083 82.4667 318.55 95.8C314.017 109.133 311.75 125.667 311.75 145.4C311.75 165.133 314.017 181.667 318.55 195C323.083 208.333 329.617 218.467 338.15 225.4C346.95 232.333 357.217 235.8 368.95 235.8ZM510.556 189L603.356 4.59999H671.756L576.956 189H510.556ZM510.556 224.2V189L531.356 171H736.956V224.2H510.556ZM643.756 287V112.2H705.356V287H643.756Z" fill="#D1B06B"/>
</svg>
