<svg width="108" height="106" viewBox="0 0 108 106" fill="none" xmlns="http://www.w3.org/2000/svg">
<g style="mix-blend-mode:multiply">
<path d="M53.8958 104.944C82.9621 104.944 106.525 81.6163 106.525 52.8407C106.525 24.0651 82.9621 0.737793 53.8958 0.737793C24.8295 0.737793 1.2666 24.0651 1.2666 52.8407C1.2666 81.6163 24.8295 104.944 53.8958 104.944Z" fill="white"/>
<path d="M53.8962 105.681C24.4692 105.681 0.522461 81.9733 0.522461 52.8405C0.522461 23.7077 24.4692 0.000488281 53.8962 0.000488281C83.3233 0.000488281 107.27 23.7077 107.27 52.8405C107.27 81.9733 83.3233 105.681 53.8962 105.681ZM53.8962 1.47482C25.2883 1.47482 2.01168 24.5186 2.01168 52.8405C2.01168 81.1625 25.2883 104.206 53.8962 104.206C82.5042 104.206 105.781 81.1625 105.781 52.8405C105.781 24.5186 82.5042 1.47482 53.8962 1.47482Z" fill="#B1B1B1"/>
<path d="M61.4022 6.03049C61.7596 6.05997 62.0723 6.07472 62.3255 6.07472L62.2957 6.31061C61.8787 6.36958 61.5213 6.67919 61.2384 7.26893L57.694 14.2867L57.5898 14.272L57.5004 14.2573L55.2517 6.42856C55.1028 5.91254 54.8496 5.63242 54.4922 5.58819L54.522 5.35229C54.8496 5.41127 55.2815 5.4555 55.8176 5.51447C56.5175 5.57344 57.0388 5.61767 57.3813 5.61767L57.3515 5.85357C57.0388 5.83882 56.8154 5.85357 56.6813 5.8978C56.5473 5.94203 56.4729 6.05997 56.458 6.20741C56.4431 6.3401 56.4729 6.53176 56.5473 6.7824L58.2004 12.7682L60.6576 7.8734C60.8661 7.47533 60.9703 7.15098 61.0001 6.91509C61.0299 6.66445 60.9554 6.47279 60.7916 6.3401C60.6278 6.20741 60.3597 6.13369 60.0023 6.08946L60.0321 5.85357C60.464 5.92728 60.9256 5.98626 61.4022 6.03049Z" fill="#B1B1B1"/>
<path d="M71.4098 9.14138C71.2609 9.14138 71.1417 9.20035 71.0524 9.3183C70.963 9.43625 70.8588 9.62791 70.7545 9.90803L68.6249 15.5105C68.5207 15.7906 68.4611 16.0118 68.4611 16.1592C68.4611 16.3066 68.5058 16.4246 68.6101 16.513C68.7143 16.6015 68.9079 16.7047 69.176 16.8226L69.0866 17.0438C68.7441 16.8964 68.2675 16.7047 67.657 16.4688C67.0017 16.2182 66.5102 16.056 66.1826 15.9528L66.272 15.7316C66.5549 15.8201 66.7634 15.8643 66.8974 15.8643C67.0315 15.8643 67.1655 15.8054 67.2549 15.6874C67.3442 15.5695 67.4485 15.3778 67.5527 15.0977L69.6823 9.49522C69.7865 9.2151 69.8461 8.99395 69.8461 8.84651C69.8461 8.69908 69.8014 8.58113 69.6972 8.49267C69.5929 8.40421 69.3993 8.30101 69.1313 8.18306L69.2206 7.96191C69.5334 8.0946 70.0099 8.28627 70.6652 8.5369C71.2758 8.7728 71.7672 8.93497 72.1246 9.03818L72.0353 9.25933C71.7672 9.17087 71.5587 9.12664 71.4098 9.14138Z" fill="#B1B1B1"/>
<path d="M84.6633 16.9406C84.5144 16.9111 84.3655 16.9553 84.2315 17.0438C84.0974 17.1322 83.9336 17.3092 83.7549 17.5598L79.4362 23.3539L79.2128 23.1917L79.7936 13.874L75.9663 19.0046C75.7876 19.2553 75.6684 19.4617 75.6088 19.6239C75.5493 19.786 75.5791 19.9335 75.6535 20.0809C75.728 20.2283 75.9067 20.3905 76.1599 20.5969L76.0109 20.7886C75.7876 20.5969 75.4599 20.3463 75.0281 20.0219C74.6409 19.7418 74.3281 19.5207 74.0898 19.388L74.2388 19.1963C74.477 19.3585 74.6706 19.4469 74.8196 19.4617C74.9685 19.4912 75.1174 19.4469 75.2514 19.3585C75.3855 19.2553 75.5493 19.0931 75.728 18.8425L79.2426 14.1246C79.4213 13.874 79.5404 13.6823 79.5851 13.5496C79.6298 13.4169 79.6149 13.2842 79.5404 13.1663C79.4659 13.0483 79.317 12.9009 79.0787 12.7092L79.2277 12.5176C79.4213 12.6945 79.7191 12.9304 80.1212 13.2105C80.419 13.4317 80.6722 13.6086 80.9105 13.7413L80.4339 21.5552L83.5315 17.3976C83.7102 17.147 83.8443 16.9406 83.8889 16.7784C83.9336 16.6162 83.9187 16.4688 83.8443 16.3214C83.7698 16.1739 83.5911 15.997 83.3379 15.8053L83.4868 15.6137C83.7102 15.8053 84.0379 16.056 84.4697 16.3803C84.8569 16.6604 85.1697 16.8816 85.4079 17.0143L85.259 17.206C85.0059 17.0585 84.8123 16.9553 84.6633 16.9406Z" fill="#B1B1B1"/>
<path d="M89.6527 23.5898C90.0399 23.3096 90.442 23 90.8739 22.6167C91.2462 23.1769 91.9015 24.1058 92.8397 25.4179C93.7779 26.7153 94.448 27.6294 94.8501 28.1602C94.3438 28.4551 93.9119 28.7204 93.5247 28.9858C93.1971 29.2217 92.929 29.4281 92.7354 29.5903L92.5716 29.3691C93.0482 28.9563 93.3758 28.6172 93.5694 28.3666C93.763 28.116 93.8374 27.8506 93.8226 27.5705C93.8077 27.2903 93.629 26.9512 93.346 26.5384L92.9588 26.0077L87.3146 29.9884C87.0466 30.18 86.853 30.3569 86.7636 30.4896C86.6743 30.6223 86.6445 30.7845 86.7041 30.9614C86.7487 31.1236 86.8828 31.3595 87.0764 31.6544L86.8828 31.8018C86.6594 31.4479 86.3169 30.9467 85.8701 30.3422C85.3935 29.6787 85.0361 29.207 84.7979 28.9121L84.9915 28.7647C85.2148 29.0448 85.3935 29.2364 85.5425 29.3397C85.6914 29.4429 85.8403 29.4723 86.0041 29.4281C86.1679 29.3839 86.3913 29.2659 86.6594 29.0743L92.3035 25.0936L91.9163 24.5628C91.6185 24.15 91.3504 23.8994 91.0973 23.7814C90.8441 23.6635 90.5611 23.6487 90.2633 23.7519C89.9655 23.8551 89.5336 24.0468 88.9826 24.3564L88.8188 24.1353C89.0421 24.0173 89.3102 23.8404 89.6527 23.5898Z" fill="#B1B1B1"/>
<path d="M92.5121 44.0534L92.2739 44.1272C92.1845 43.8028 92.0654 43.39 91.8867 42.8887C91.6633 42.24 91.4846 41.7535 91.3506 41.4291L91.5888 41.3554C91.6931 41.6355 91.8122 41.842 91.9016 41.9452C92.0058 42.0484 92.1398 42.0778 92.2888 42.0189C92.4228 41.9746 92.5866 41.8714 92.7802 41.7093L94.4332 40.3676L93.495 37.6106L92.1101 37.5516C91.6633 37.5222 91.3208 37.5516 91.0825 37.6401C90.8442 37.7286 90.6953 37.8613 90.6357 38.0529C90.591 38.2446 90.6208 38.5247 90.7251 38.8638L90.4868 38.9375C90.3677 38.4952 90.2187 38.0529 90.0698 37.6106C89.9507 37.2715 89.8464 36.9914 89.7422 36.7703L89.9805 36.6965C90.189 37.0504 90.6357 37.242 91.291 37.2568L99.2136 37.6106L99.2732 37.7875L92.9589 42.9919C92.5717 43.3605 92.4228 43.6996 92.5121 44.0534ZM97.6797 37.7875L93.778 37.6254L94.6566 40.2202L97.6797 37.7875Z" fill="#B1B1B1"/>
<path d="M93.5991 55.3323C93.748 55.2734 93.8224 55.1997 93.8224 55.0964C93.8224 55.0375 93.8075 54.9932 93.7778 54.949C93.748 54.9048 93.6884 54.8163 93.5991 54.6984C93.3757 54.4183 93.2119 54.1234 93.0927 53.8285C92.9736 53.5337 92.914 53.1946 92.914 52.826C92.8991 52.0004 93.0629 51.2927 93.3906 50.6882C93.7331 50.0837 94.2096 49.6267 94.8649 49.3023C95.5053 48.978 96.2797 48.8158 97.1881 48.8011C98.1263 48.7863 98.9454 48.9337 99.6453 49.2581C100.345 49.5825 100.896 50.0248 101.283 50.6145C101.671 51.2042 101.879 51.8677 101.879 52.6048C101.879 52.9292 101.849 53.2241 101.79 53.4747C101.73 53.7253 101.641 53.9465 101.537 54.1381C101.432 54.3298 101.298 54.5509 101.12 54.7868C101.045 54.89 101.001 54.9785 101.001 55.0375C101.001 55.1849 101.254 55.2881 101.745 55.3323V55.6125C101.224 55.583 100.286 55.583 98.9454 55.6125V55.3323C99.3772 55.2586 99.7347 55.1702 100.018 55.0817C100.301 54.9932 100.539 54.8606 100.747 54.6984C101.03 54.4625 101.269 54.1529 101.432 53.7696C101.596 53.3862 101.671 53.0029 101.671 52.5901C101.656 52.0593 101.477 51.6023 101.12 51.2042C100.762 50.8061 100.256 50.5113 99.6155 50.2901C98.9603 50.0837 98.2156 49.9805 97.3519 49.9953C96.369 50.01 95.5797 50.128 94.9543 50.3491C94.3288 50.5703 93.882 50.8946 93.5842 51.3222C93.2863 51.7497 93.1523 52.2952 93.1672 52.9587C93.1821 53.4452 93.3161 53.858 93.5693 54.2119C93.6735 54.3593 93.7629 54.4477 93.8671 54.492C93.9565 54.5362 94.0905 54.5509 94.2543 54.5509L95.4308 54.5362C95.7733 54.5362 96.0116 54.492 96.1754 54.433C96.3243 54.374 96.4435 54.2561 96.4882 54.0792C96.5477 53.917 96.5775 53.6516 96.5775 53.2978H96.8158C96.8009 53.6958 96.786 54.2561 96.8009 55.008C96.8158 55.5682 96.8307 55.9958 96.8605 56.2612H96.6222C96.6073 56.0695 96.5626 55.9368 96.5179 55.8631C96.4733 55.7894 96.369 55.7304 96.235 55.7009C96.101 55.6714 95.8776 55.6567 95.5648 55.6714L93.1523 55.7157V55.4798C93.2863 55.4208 93.4501 55.3913 93.5991 55.3323Z" fill="#B1B1B1"/>
<path d="M91.8276 67.8788C91.3957 67.7461 90.8894 67.6134 90.3086 67.4955C90.5022 66.9794 90.7851 66.1096 91.1872 64.8711C91.6638 63.3968 92.0063 62.2763 92.2148 61.5244L92.4531 61.5981C92.3786 61.8783 92.3488 62.0847 92.3488 62.2321C92.3637 62.3795 92.4233 62.4827 92.5424 62.5712C92.6616 62.6596 92.8701 62.7481 93.153 62.8366L98.9163 64.6353C99.2142 64.7237 99.4226 64.7679 99.5716 64.7679C99.7205 64.7679 99.8396 64.709 99.929 64.591C100.018 64.4731 100.108 64.2814 100.212 64.016L100.45 64.0898C100.182 64.8417 99.8247 65.9474 99.3482 67.4217C98.9908 68.5422 98.7376 69.3531 98.6185 69.8396C98.127 69.6332 97.6802 69.4563 97.2633 69.3384C96.9654 69.2499 96.7123 69.1762 96.5335 69.1467L96.6229 68.8813C97.1441 68.9845 97.5462 69.0288 97.8143 69.0288C98.0823 69.0288 98.3057 68.9403 98.4844 68.7634C98.6631 68.6012 98.8121 68.3063 98.9461 67.9083L99.2439 66.95C99.3333 66.6698 99.378 66.4634 99.3631 66.3307C99.3482 66.198 99.3035 66.0801 99.1844 65.9916C99.0652 65.9032 98.8716 65.8147 98.5738 65.7263L95.8336 64.8711L95.5953 65.6378C95.4762 66.0211 95.506 66.316 95.6996 66.5224C95.8932 66.7288 96.1017 66.8762 96.3399 66.9794C96.5782 67.0826 96.7271 67.1564 96.7867 67.1858L96.6974 67.4512C96.3251 67.3038 95.9676 67.1711 95.6102 67.0679L95.0592 66.9057C94.672 66.7878 94.1061 66.6256 93.3913 66.4634L93.4806 66.198C93.5402 66.2128 93.7338 66.2423 94.0614 66.316C94.3891 66.375 94.672 66.3455 94.8954 66.2275C95.1188 66.1096 95.2677 65.8884 95.372 65.5788L95.6102 64.8122L92.8105 63.9423C92.5126 63.8539 92.3042 63.8096 92.1552 63.8096C92.0063 63.8096 91.8872 63.8686 91.8127 63.9866C91.7234 64.1045 91.634 64.2962 91.5446 64.5763L91.2766 65.4166C91.1277 65.9032 91.0681 66.2865 91.1277 66.5666C91.1723 66.8615 91.3213 67.0974 91.5744 67.3038C91.8276 67.4955 92.2148 67.7166 92.736 67.9525L92.6467 68.2179C92.468 68.0852 92.185 67.9967 91.8276 67.8788Z" fill="#B1B1B1"/>
<path d="M87.5821 85.969C87.6417 85.8363 87.6268 85.7036 87.5672 85.5709C87.5077 85.4382 87.3587 85.276 87.1354 85.0549L82.757 80.912C82.5337 80.7056 82.355 80.5729 82.2209 80.5139C82.0869 80.455 81.9529 80.455 81.8188 80.5139C81.6848 80.5729 81.521 80.7056 81.3125 80.912L81.1338 80.7498C81.4167 80.4992 81.7742 80.1306 82.2358 79.6736C82.7124 79.1723 83.0698 78.789 83.2932 78.5383L83.4719 78.7005C83.2783 78.9217 83.1591 79.0986 83.0996 79.2165C83.04 79.3492 83.0549 79.4819 83.1145 79.6146C83.174 79.7473 83.3229 79.9095 83.5463 80.1306L87.9246 84.2735C88.148 84.4799 88.3267 84.6126 88.4608 84.6715C88.5948 84.7305 88.7288 84.7305 88.8629 84.6715C88.9969 84.6126 89.1607 84.4799 89.3692 84.2735L89.5479 84.4357C89.2947 84.6568 88.9224 85.0254 88.4459 85.5267C87.9842 85.9984 87.6417 86.3818 87.4034 86.6619L87.2247 86.4997C87.4034 86.2786 87.5226 86.1017 87.5821 85.969Z" fill="#B1B1B1"/>
<path d="M75.1774 94.9622C75.2668 94.8295 75.2816 94.6968 75.2519 94.5346C75.2221 94.3724 75.1178 94.166 74.954 93.8859L71.2607 87.679L71.499 87.5315L79.928 91.7039L76.6666 86.2194C76.5028 85.954 76.3688 85.7623 76.2348 85.6591C76.1007 85.5559 75.9518 85.5117 75.788 85.5264C75.6242 85.5412 75.4008 85.6296 75.1178 85.7771L74.9838 85.5707C75.2519 85.4527 75.6093 85.2463 76.0709 84.9809C76.4879 84.7303 76.8007 84.5386 77.024 84.3765L77.1432 84.5829C76.9049 84.7303 76.7411 84.8777 76.6666 85.0104C76.5773 85.1431 76.5624 85.2758 76.5922 85.438C76.622 85.6002 76.7262 85.8066 76.89 86.0867L79.8982 91.1436C80.0472 91.409 80.1812 91.5859 80.3003 91.6744C80.4195 91.7629 80.5386 91.8071 80.6875 91.7776C80.8216 91.7481 81.0301 91.6744 81.2832 91.5417L81.4024 91.7481C81.1641 91.8661 80.8365 92.043 80.4046 92.2936C80.0918 92.4705 79.8238 92.6475 79.6004 92.7949L72.5266 89.3007L75.1774 93.7532C75.3412 94.0186 75.4752 94.2103 75.6093 94.3135C75.7284 94.4167 75.8773 94.4609 76.056 94.4461C76.2348 94.4314 76.4581 94.3429 76.7411 94.1955L76.8602 94.4019C76.5922 94.5199 76.2347 94.7263 75.7731 94.9917C75.3561 95.2423 75.0434 95.4339 74.82 95.5961L74.7009 95.3897C74.9242 95.2275 75.088 95.0801 75.1774 94.9622Z" fill="#B1B1B1"/>
<path d="M66.9872 96.8936C67.0914 97.3507 67.2254 97.852 67.4041 98.3827C66.734 98.5007 65.6171 98.7366 64.0385 99.0609C62.4599 99.4 61.3579 99.6506 60.7026 99.8128C60.6282 99.2378 60.5537 98.7366 60.4495 98.2795C60.3601 97.8815 60.2856 97.5571 60.1963 97.3212L60.4643 97.2622C60.6579 97.8667 60.8367 98.2943 61.0005 98.5744C61.1643 98.8545 61.3728 99.0314 61.6408 99.1199C61.9089 99.2084 62.2961 99.1936 62.7875 99.0904L63.4279 98.9577L61.9685 92.2495C61.894 91.9251 61.8195 91.6893 61.7153 91.5566C61.6111 91.4239 61.4919 91.3354 61.3132 91.3207C61.1345 91.2912 60.8664 91.3207 60.509 91.3796L60.4643 91.1438C60.8813 91.0848 61.477 90.9668 62.2216 90.8047C63.0109 90.6277 63.6066 90.495 63.9789 90.3918L64.0236 90.6277C63.6662 90.7162 63.4279 90.8047 63.279 90.8931C63.1301 90.9816 63.0407 91.1143 63.0109 91.2764C62.9811 91.4386 62.996 91.6893 63.0705 92.0136L64.5299 98.7218L65.1703 98.5891C65.6617 98.4859 66.0192 98.3385 66.2276 98.1468C66.4361 97.9552 66.5553 97.7045 66.5851 97.3949C66.6148 97.0853 66.6 96.6135 66.5255 95.9943L66.7936 95.9353C66.8382 96.1712 66.8978 96.4956 66.9872 96.8936Z" fill="#B1B1B1"/>
<path d="M47.2248 92.7507C47.2695 92.2936 47.2844 91.7776 47.2844 91.2026C47.8354 91.2764 48.7587 91.3648 50.0693 91.4828C51.6181 91.6154 52.7945 91.7187 53.5987 91.7629L53.5838 91.9988C53.286 91.984 53.0775 91.9988 52.9435 92.043C52.8094 92.0872 52.7052 92.1609 52.6456 92.2936C52.5861 92.4263 52.5414 92.6475 52.5116 92.9423L51.9755 98.9134C51.9457 99.2083 51.9606 99.4294 51.9904 99.5768C52.0201 99.7243 52.1095 99.8275 52.2435 99.8864C52.3776 99.9454 52.5861 100.004 52.869 100.034L52.8541 100.27C52.0648 100.181 50.8883 100.063 49.3395 99.9307C48.1482 99.8275 47.2993 99.7685 46.793 99.739C46.8972 99.223 46.9717 98.7512 47.0015 98.3237C47.0312 98.0141 47.0461 97.7634 47.0312 97.5717L47.3142 97.6012C47.3291 98.132 47.3589 98.5153 47.4333 98.7807C47.4929 99.0461 47.6269 99.2377 47.8354 99.3704C48.029 99.5031 48.3567 99.5916 48.7736 99.6211L49.7863 99.7095C50.0842 99.739 50.2926 99.7243 50.4267 99.6948C50.5607 99.6653 50.665 99.5768 50.7245 99.4441C50.7841 99.3115 50.8288 99.0903 50.8585 98.7954L51.1117 95.9647L50.3075 95.891C49.9054 95.8615 49.6225 95.95 49.4587 96.1859C49.3098 96.4218 49.1906 96.6577 49.1459 96.9083C49.0864 97.1589 49.0566 97.3211 49.0417 97.3948L48.7587 97.3653C48.8183 96.9673 48.863 96.5987 48.9077 96.2301L48.9523 95.6551C48.9821 95.2423 49.0119 94.6821 49.0417 93.9449L49.3247 93.9744C49.3247 94.0334 49.3395 94.225 49.3395 94.5641C49.3544 94.9032 49.4289 95.1686 49.6076 95.3455C49.7714 95.5372 50.0246 95.6404 50.3522 95.6699L51.1564 95.7436L51.4096 92.8539C51.4393 92.559 51.4245 92.3379 51.3947 92.1904C51.3649 92.0577 51.2755 91.9545 51.1415 91.8956C51.0075 91.8366 50.799 91.7924 50.516 91.7629L49.6225 91.6892C49.1162 91.6449 48.729 91.6744 48.446 91.7924C48.1779 91.8956 47.9695 92.102 47.8205 92.3821C47.6716 92.6622 47.5525 93.0898 47.4333 93.65L47.1504 93.6205C47.1504 93.3994 47.1802 93.1045 47.2248 92.7507Z" fill="#B1B1B1"/>
<path d="M35.5049 87.281C35.7283 87.2368 35.9815 87.281 36.2495 87.3989C36.5623 87.5316 36.7708 87.7233 36.8899 87.9739C37.009 88.2393 37.0239 88.6079 36.9495 89.0944L36.7261 90.3034C36.6516 90.7309 36.6069 91.0553 36.592 91.3059C36.5772 91.5418 36.6367 91.763 36.741 91.9546C36.8452 92.1463 37.0388 92.2937 37.3218 92.4117L38.394 92.854L39.4811 90.2886C39.6003 90.0085 39.6599 89.8021 39.6747 89.6547C39.6896 89.5072 39.6301 89.3893 39.5258 89.2861C39.4216 89.1829 39.2429 89.0797 38.9748 88.9617L39.0642 88.7406C39.4067 88.9027 39.8683 89.1092 40.4789 89.3598C41.1193 89.6252 41.6107 89.8168 41.9384 89.92L41.849 90.1412C41.5661 90.038 41.3576 89.9938 41.2235 89.979C41.0746 89.979 40.9555 90.0232 40.8661 90.1412C40.7619 90.2444 40.6576 90.4361 40.5385 90.7162L38.2004 96.2449C38.0813 96.525 38.0217 96.7314 38.0068 96.8789C37.9919 97.0263 38.0515 97.1443 38.1557 97.2475C38.26 97.3507 38.4387 97.4539 38.7067 97.5866L38.6174 97.8077C38.3047 97.6603 37.8579 97.4539 37.2622 97.2032C36.9644 97.0853 36.6516 96.9526 36.2942 96.8052C35.9368 96.6577 35.6985 96.5693 35.5645 96.5103C34.9837 96.2597 34.522 95.9795 34.1795 95.6404C33.837 95.3014 33.6434 94.9475 33.554 94.5642C33.4647 94.1809 33.5094 93.8123 33.6732 93.4437C33.7923 93.1488 33.9859 92.8834 34.254 92.6476C34.522 92.4117 34.8646 92.2347 35.2815 92.1463C35.6985 92.0578 36.2049 92.0726 36.7559 92.2053L36.6218 92.1315C36.3091 91.9399 36.0708 91.7482 35.9219 91.5418C35.773 91.3501 35.6687 91.129 35.6389 90.8931C35.5943 90.6572 35.6092 90.3623 35.6687 90.0085L35.8772 88.7553C35.9219 88.5047 35.9517 88.313 35.9517 88.1656C35.9517 88.0181 35.9368 87.9002 35.8921 87.8117C35.8474 87.7233 35.773 87.6496 35.6687 87.6201C35.5496 87.5611 35.4305 87.5611 35.3262 87.5906C35.222 87.6201 35.073 87.6938 34.8794 87.797L34.7603 87.6053C35.0284 87.4432 35.2815 87.3252 35.5049 87.281ZM36.2495 92.5296C35.8921 92.5738 35.6092 92.7065 35.3858 92.9277C35.1624 93.1488 34.9688 93.4437 34.805 93.827C34.5518 94.4315 34.4922 94.9622 34.6561 95.3898C34.8199 95.8174 35.222 96.1712 35.8921 96.4513C36.1304 96.5545 36.3091 96.5988 36.458 96.584C36.592 96.584 36.7112 96.525 36.8154 96.4071C36.9197 96.2891 37.0239 96.0975 37.1282 95.8321L38.2898 93.0898L37.5303 92.7802C37.0388 92.5738 36.6069 92.4854 36.2495 92.5296Z" fill="#B1B1B1"/>
<path d="M23.8887 89.2861C24.0227 89.3303 24.1567 89.3008 24.2759 89.2271C24.395 89.1534 24.5588 88.9912 24.7524 88.7553L28.4904 84.0374C28.684 83.8015 28.8031 83.6099 28.8478 83.4772C28.8924 83.3445 28.8776 83.2118 28.8031 83.0939C28.7286 82.9759 28.5797 82.8137 28.3563 82.6221L28.5053 82.4304C28.7882 82.6811 29.1754 83.0054 29.6966 83.4035C30.2476 83.831 30.6646 84.1406 30.9476 84.3323L30.7987 84.524C30.5604 84.3471 30.3668 84.2438 30.2328 84.2144C30.0987 84.1701 29.9647 84.1849 29.8456 84.2733C29.7264 84.3471 29.5626 84.5092 29.369 84.7451L25.631 89.463C25.4374 89.6989 25.3183 89.8905 25.2736 90.0232C25.229 90.1559 25.2438 90.2886 25.3183 90.4066C25.3928 90.5245 25.5417 90.6867 25.7651 90.8783L25.6162 91.07C25.363 90.8489 24.9609 90.5245 24.4099 90.0822C23.8887 89.6841 23.4717 89.3745 23.1738 89.1681L23.3228 88.9765C23.5759 89.1386 23.7546 89.2418 23.8887 89.2861Z" fill="#B1B1B1"/>
<path d="M14.2687 78.7888C14.2091 78.1254 14.358 77.4619 14.7005 76.828C15.058 76.1792 15.5941 75.6043 16.3387 75.0588C17.0684 74.5427 17.7981 74.2036 18.5576 74.071C19.3171 73.9383 20.0171 73.9825 20.6723 74.2331C21.3276 74.4838 21.8786 74.9113 22.3105 75.5158C22.7721 76.135 23.0253 76.7837 23.0849 77.4472C23.1444 78.1106 22.9955 78.7741 22.653 79.408C22.2956 80.0567 21.7595 80.6317 21.0149 81.1772C20.2851 81.6933 19.5554 82.0323 18.7959 82.165C18.0513 82.2977 17.3365 82.2535 16.6812 82.0029C16.026 81.7522 15.4749 81.3247 15.0431 80.7349C14.5814 80.101 14.3282 79.4523 14.2687 78.7888ZM16.5025 81.4131C17.0237 81.5163 17.6194 81.4721 18.2747 81.2657C18.9299 81.0593 19.5852 80.7202 20.2702 80.2189C20.9553 79.7324 21.4914 79.2016 21.8637 78.6414C22.2509 78.0811 22.4594 77.5209 22.4892 76.9901C22.5339 76.4594 22.3998 75.9876 22.1169 75.5895C21.8041 75.1767 21.4021 74.9113 20.8659 74.8081C20.3447 74.7049 19.749 74.7491 19.0938 74.9556C18.4385 75.162 17.7832 75.5011 17.0982 75.9876C16.4132 76.4741 15.877 77.0049 15.5047 77.5799C15.1175 78.1401 14.909 78.6856 14.8644 79.2311C14.8197 79.7619 14.9537 80.2337 15.2367 80.6317C15.5494 81.0445 15.9664 81.3099 16.5025 81.4131Z" fill="#B1B1B1"/>
<path d="M15.4145 61.0379C15.5933 61.1706 15.7273 61.3918 15.8166 61.6866C15.9209 61.9962 15.906 62.2911 15.7869 62.5417C15.6677 62.8071 15.3848 63.0578 14.9529 63.3084L13.8658 63.9129C13.4934 64.134 13.2105 64.3109 13.0169 64.4584C12.8233 64.6058 12.6893 64.7827 12.6148 64.9891C12.5403 65.1955 12.5403 65.4314 12.6297 65.7263L12.9722 66.832L15.6528 66.0064C15.9507 65.918 16.1443 65.8295 16.2634 65.741C16.3825 65.6526 16.4421 65.5346 16.457 65.4019C16.4719 65.2693 16.4272 65.0481 16.3528 64.768L16.591 64.6943C16.6804 65.0481 16.8144 65.5494 17.0229 66.1686C17.2314 66.832 17.3952 67.3186 17.5144 67.6282L17.2761 67.7019C17.1718 67.4218 17.0825 67.2301 16.9931 67.1269C16.9038 67.0237 16.7846 66.95 16.6357 66.95C16.4868 66.95 16.2634 66.9795 15.9805 67.0827L10.2023 68.8519C9.90442 68.9403 9.71082 69.0288 9.59168 69.1173C9.47254 69.2057 9.41298 69.3237 9.39808 69.4564C9.38319 69.6038 9.42787 69.8102 9.50233 70.0903L9.26405 70.164C9.18959 69.8397 9.05556 69.3679 8.86196 68.7487C8.77261 68.4538 8.65347 68.1147 8.53433 67.7609C8.4152 67.407 8.32584 67.1564 8.28116 67.0237C8.08757 66.4192 8.028 65.8885 8.07267 65.4167C8.11735 64.9449 8.26627 64.5616 8.50455 64.252C8.74282 63.9424 9.05556 63.736 9.44276 63.618C9.7406 63.5295 10.0682 63.5001 10.4256 63.5443C10.7831 63.5885 11.1256 63.7359 11.483 64.0013C11.8404 64.2667 12.1383 64.65 12.3914 65.1661L12.3765 65.0186C12.3319 64.65 12.317 64.3552 12.3765 64.1045C12.4361 63.8539 12.5403 63.6475 12.6893 63.4706C12.8531 63.2936 13.0914 63.102 13.4041 62.9251L14.5061 62.2764C14.7295 62.1584 14.9082 62.0405 15.0125 61.952C15.1167 61.8635 15.2061 61.7751 15.2507 61.6866C15.2954 61.5982 15.2954 61.495 15.2656 61.3918C15.2209 61.2591 15.1614 61.1706 15.072 61.1116C14.9827 61.0527 14.8338 60.979 14.6253 60.9052L14.6997 60.6841C14.9976 60.7873 15.2507 60.9052 15.4145 61.0379ZM11.8553 64.9891C11.6021 64.7532 11.3043 64.6205 10.9916 64.5911C10.6788 64.5616 10.3214 64.6058 9.91931 64.7385C9.27894 64.9302 8.84707 65.2398 8.60879 65.6378C8.37052 66.0359 8.37052 66.5814 8.57901 67.2449C8.65347 67.4808 8.74282 67.6577 8.83218 67.7609C8.92153 67.8641 9.05556 67.9231 9.20448 67.9231C9.35341 67.9231 9.57679 67.8788 9.84485 67.8051L12.7042 66.9205L12.4659 66.1391C12.317 65.6084 12.1085 65.225 11.8553 64.9891Z" fill="#B1B1B1"/>
<path d="M14.2681 47.0465C14.834 46.7959 15.1765 46.3241 15.3254 45.6164C15.3701 45.351 15.3701 45.0856 15.2956 44.835C15.2212 44.5844 15.0871 44.3632 14.8786 44.1715C14.6701 43.9799 14.3872 43.8472 14.0149 43.7882C13.7021 43.7292 13.4192 43.7587 13.1511 43.8619C12.8831 43.9651 12.615 44.1273 12.3618 44.3485C12.1087 44.5696 11.8108 44.8645 11.4832 45.2331C11.1109 45.6459 10.7833 45.985 10.5003 46.2209C10.2174 46.4715 9.90463 46.6484 9.5621 46.7811C9.21958 46.9138 8.83238 46.9285 8.40051 46.8548C7.95374 46.7664 7.58144 46.6042 7.31338 46.3388C7.04532 46.0734 6.85172 45.7638 6.76236 45.3952C6.67301 45.0267 6.67301 44.6433 6.74747 44.2305C6.79215 43.9799 6.85172 43.7882 6.92618 43.6113C7.00064 43.4344 7.0751 43.3017 7.16445 43.1985C7.25381 43.0953 7.34316 42.9773 7.4623 42.8594C7.61122 42.6972 7.68568 42.5793 7.71547 42.4908C7.73036 42.4171 7.70057 42.3581 7.62611 42.2991C7.55165 42.2402 7.41762 42.1959 7.23892 42.137L7.28359 41.8716C7.74525 41.9895 8.54943 42.1664 9.72592 42.3876L9.68124 42.653C9.26426 42.6087 8.87706 42.6235 8.48986 42.712C8.11756 42.7857 7.78993 42.9478 7.52187 43.1985C7.25381 43.4344 7.0751 43.7735 7.00064 44.1863C6.94107 44.4664 6.95596 44.717 7.03042 44.9677C7.10488 45.2183 7.23892 45.41 7.41762 45.5722C7.61122 45.7343 7.8346 45.8375 8.10266 45.8965C8.53454 45.9702 8.90685 45.9113 9.21958 45.7048C9.53232 45.4984 9.83016 45.2331 10.1131 44.9234C10.3961 44.6138 10.5748 44.4074 10.679 44.3042C11.096 43.8619 11.4385 43.5228 11.7215 43.2722C12.0044 43.0216 12.3172 42.8446 12.6597 42.7267C13.0022 42.6087 13.3745 42.594 13.7766 42.6677C14.2681 42.7562 14.6701 42.9478 14.968 43.228C15.2658 43.5228 15.4594 43.8619 15.5637 44.2747C15.6679 44.6876 15.6679 45.1299 15.5786 45.6016C15.5041 45.985 15.4148 46.2798 15.2807 46.5157C15.1616 46.7516 14.9978 46.958 14.8191 47.1497C14.6701 47.3119 14.5957 47.4298 14.5659 47.5183C14.551 47.592 14.5808 47.651 14.6553 47.7099C14.7297 47.7689 14.8637 47.8279 15.0424 47.8721L14.9978 48.1375C14.5659 48.0195 13.6128 47.8279 12.1385 47.5625L12.1831 47.2971C13.0171 47.3708 13.7021 47.2971 14.2681 47.0465Z" fill="#B1B1B1"/>
<path d="M11.3193 34.6178C10.9023 34.3967 10.4258 34.1903 9.88965 33.9839C10.2173 33.4089 10.7683 32.4063 11.5129 30.9762C12.2575 29.5609 12.7787 28.5583 13.0617 27.9539C13.5531 28.2635 13.9999 28.5288 14.402 28.7353C14.7594 28.9269 15.0721 29.0596 15.3104 29.1628L15.1764 29.4134C14.5807 29.1776 14.1339 29.0301 13.8212 28.9859C13.5085 28.9269 13.2255 28.9859 12.9872 29.1333C12.749 29.2808 12.5107 29.5756 12.2873 30.0179L11.9895 30.6077L18.1399 33.7775C18.4378 33.9396 18.6761 34.0134 18.8399 34.0281C19.0037 34.0428 19.1526 33.9986 19.2867 33.8807C19.4207 33.7627 19.5696 33.5416 19.7483 33.232L19.9717 33.3499C19.7483 33.7185 19.4654 34.2345 19.1079 34.9127C18.7356 35.6204 18.4676 36.1659 18.3038 36.505L18.0804 36.387C18.2293 36.0627 18.3335 35.812 18.3484 35.6499C18.3782 35.473 18.3335 35.3255 18.2144 35.1928C18.0953 35.0601 17.9017 34.9274 17.6038 34.7653L11.4533 31.5807L11.1406 32.1557C10.9023 32.598 10.7981 32.9518 10.813 33.232C10.8279 33.5121 10.947 33.7627 11.1704 33.9839C11.3938 34.205 11.7661 34.4999 12.3022 34.839L12.1682 35.0896C11.9746 34.9717 11.6767 34.8095 11.3193 34.6178Z" fill="#B1B1B1"/>
<path d="M21.8336 17.6779C22.0868 17.4272 22.2953 17.1913 22.4442 17.0144L22.6229 17.1913C22.5336 17.324 22.4889 17.5157 22.5038 17.7368C22.5187 17.958 22.5783 18.2676 22.6974 18.6362L24.0526 22.6316L25.6312 24.1797C25.8545 24.3861 26.0184 24.5335 26.1524 24.5925C26.2864 24.6514 26.4204 24.6514 26.5545 24.5925C26.6885 24.5335 26.8523 24.4008 27.0757 24.2091L27.2544 24.3861C26.9715 24.6367 26.5992 24.9905 26.1375 25.4476C25.6461 25.9341 25.2886 26.3174 25.0653 26.5681L24.8865 26.3912C25.0801 26.17 25.2142 26.0078 25.2737 25.8751C25.3333 25.7424 25.3333 25.6098 25.2589 25.4771C25.1993 25.3444 25.0504 25.1675 24.8419 24.9611L23.5314 23.6784L18.5573 22.2335C18.2595 22.1451 18.0361 22.1156 17.8872 22.1303C17.7383 22.1451 17.634 22.1893 17.5596 22.263L17.3809 22.0861C17.6191 21.8797 17.8872 21.6438 18.1553 21.3637C18.7063 20.8034 19.1084 20.4054 19.3317 20.14L19.5105 20.3169C19.1084 20.715 19.019 21.0246 19.2424 21.2457C19.3317 21.3342 19.4509 21.3932 19.6296 21.4521L23.8143 22.7348L22.7123 19.4765C22.5485 19.0048 22.3847 18.6804 22.2059 18.5182C22.0421 18.356 21.8634 18.3118 21.6698 18.3708C21.4762 18.4298 21.2528 18.5772 20.9848 18.8278L20.8061 18.6509C21.1635 18.3266 21.4911 18.0022 21.8336 17.6779Z" fill="#B1B1B1"/>
<path d="M30.8437 11.7362C30.7543 11.8394 30.7097 11.9721 30.7395 12.1195C30.7692 12.267 30.8437 12.4734 30.9926 12.7388L33.8668 18.0169C34.0157 18.2823 34.1349 18.4592 34.254 18.5624C34.3583 18.6656 34.4923 18.6951 34.6263 18.6803C34.7604 18.6656 34.9688 18.5771 35.222 18.4444L36.0113 18.0169C36.4581 17.781 36.7708 17.5303 36.9346 17.2797C37.0984 17.0291 37.158 16.7489 37.1133 16.4098C37.0687 16.0708 36.9346 15.6432 36.6964 15.0829L36.9495 14.9503C37.0538 15.1862 37.2027 15.481 37.3963 15.8349C37.6197 16.2329 37.8877 16.6752 38.2154 17.1618C37.7239 17.3977 36.8899 17.8252 35.7432 18.4444C34.3732 19.1816 33.3307 19.7418 32.6457 20.1399L32.5265 19.9335C32.7797 19.7861 32.9584 19.6534 33.0478 19.5502C33.1371 19.447 33.1818 19.3143 33.152 19.1668C33.1222 19.0194 33.0477 18.813 32.8988 18.5476L29.9948 13.2695C29.8459 13.0041 29.7268 12.8272 29.6076 12.724C29.5034 12.6208 29.3694 12.5913 29.2353 12.6061C29.0864 12.6208 28.8928 12.6945 28.6248 12.8272L28.5205 12.6061C28.8332 12.4734 29.2949 12.2375 29.9055 11.8984C30.4863 11.5888 30.9331 11.3381 31.2458 11.1465L31.3649 11.3529C31.1118 11.5003 30.9479 11.633 30.8437 11.7362Z" fill="#B1B1B1"/>
<path d="M48.982 12.6797C49.0714 13.122 49.2054 13.6232 49.3692 14.1835C48.8182 14.2719 47.9098 14.4341 46.629 14.6848C45.0951 14.9796 43.9484 15.2155 43.1591 15.3924L43.1145 15.1565C43.3974 15.0828 43.6059 15.0239 43.725 14.9354C43.8442 14.8617 43.9186 14.7437 43.9335 14.611C43.9484 14.4636 43.9335 14.2425 43.874 13.9476L42.7124 8.06501C42.6528 7.77015 42.5932 7.56374 42.5039 7.43105C42.4145 7.29836 42.3252 7.22464 42.1763 7.2099C42.0422 7.18041 41.8188 7.19516 41.5359 7.23939L41.4912 7.00349C42.2805 6.8708 43.4421 6.6644 44.9611 6.36953C46.1376 6.13364 46.9716 5.97146 47.4481 5.85352C47.4928 6.38428 47.5672 6.85606 47.6417 7.26887C47.7013 7.57848 47.7608 7.81438 47.8204 7.9913L47.5524 8.05027C47.3885 7.549 47.2396 7.18041 47.1056 6.94452C46.9716 6.70863 46.778 6.56119 46.5546 6.48748C46.3163 6.41376 46.0036 6.41376 45.5717 6.50222L44.5739 6.69388C44.291 6.75286 44.0825 6.81183 43.9633 6.88555C43.8442 6.95926 43.7697 7.06247 43.7399 7.2099C43.725 7.35733 43.7399 7.57848 43.7995 7.87335L44.3505 10.6746L45.1398 10.5124C45.5419 10.4387 45.7802 10.2618 45.8695 9.99639C45.9589 9.73101 45.9887 9.48037 45.9738 9.22974C45.9589 8.9791 45.944 8.81692 45.944 8.74321L46.2121 8.68423C46.2567 9.0823 46.3163 9.45089 46.3908 9.80472L46.5099 10.365C46.5844 10.763 46.7184 11.3233 46.912 12.031L46.6439 12.0899C46.629 12.031 46.5695 11.854 46.4652 11.5297C46.361 11.2053 46.2121 10.9842 45.9887 10.8515C45.7653 10.7188 45.5121 10.6893 45.1845 10.7483L44.3952 10.8957L44.9611 13.7412C45.0207 14.0361 45.0802 14.2425 45.1547 14.3752C45.2292 14.4931 45.3334 14.5668 45.4823 14.5963C45.6164 14.611 45.8397 14.5963 46.1227 14.5373L47.0013 14.3604C47.4928 14.2572 47.8651 14.1245 48.1034 13.9476C48.3416 13.7707 48.4757 13.52 48.5352 13.2104C48.5948 12.9008 48.5948 12.4585 48.5501 11.8835L48.8182 11.8246C48.8629 12.0457 48.9075 12.3258 48.982 12.6797Z" fill="#B1B1B1"/>
<path d="M38.9444 68.9845C38.2593 68.0705 37.6636 67.0679 37.1424 65.9622C36.6212 64.8564 36.2042 63.7359 35.8915 62.5859C35.2064 57.529 35.1915 52.6195 35.8319 47.8574C36.4723 43.0953 37.5147 38.4069 38.9444 33.7775C39.1826 33.2615 39.7039 33.0108 40.5081 33.0108C41.3122 33.0108 42.1015 33.1878 42.9057 33.5416C43.7099 33.8954 44.3651 34.3672 44.8864 34.957C45.4076 35.5467 45.5267 36.1659 45.2438 36.7999C44.797 37.7435 44.3651 39.0261 43.9333 40.6184C43.5014 42.2254 43.0695 43.9946 42.6823 45.926C42.2802 47.8574 41.9377 49.8919 41.6399 52.0002C41.342 54.1085 41.1186 56.1431 40.9846 58.0745C40.8506 60.0059 40.8208 61.7603 40.8953 63.3231C40.9697 64.8859 41.208 66.1243 41.6101 67.0237C43.4865 64.5321 45.1991 61.952 46.7628 59.2834C48.3265 56.6149 49.7859 53.9169 51.156 51.1599C52.5261 48.4176 53.8366 45.6459 55.0727 42.8299C56.3087 40.0287 57.5299 37.2569 58.7213 34.5294C59.317 33.1435 59.9126 31.6839 60.4934 30.1506C61.0742 28.6026 61.8337 27.2904 62.8017 26.1847C63.2038 25.8309 63.5166 25.7129 63.7251 25.8309C63.9484 25.9488 64.0974 26.1699 64.1718 26.509C64.2463 26.8481 64.291 27.202 64.291 27.5706C64.291 27.9391 64.291 28.234 64.291 28.4257C64.008 30.2391 63.7697 32.0378 63.5761 33.8217C63.3825 35.6057 62.9507 37.3159 62.3252 38.9819C61.2827 41.5915 60.2254 44.1715 59.1234 46.7516C58.0213 49.317 56.8448 51.8528 55.5939 54.3444C54.3429 56.836 52.9729 59.2539 51.5283 61.5981C50.0689 63.9571 48.4903 66.1981 46.7628 68.3211C45.4076 70.0166 44.0524 70.9159 42.727 71.0191C41.342 71.1371 40.106 70.4441 38.9444 68.9845Z" fill="#B1B1B1" stroke="white" stroke-miterlimit="10"/>
<path d="M63.6061 62.2912C62.8019 61.1854 62.0127 60.0649 61.2383 58.9149C60.4639 57.765 60.0767 56.5118 60.0767 55.1259C60.0767 53.5926 60.5234 52.133 61.417 50.7619C62.3105 49.4055 63.3381 48.2998 64.4997 47.4741C64.9762 47.1645 65.4677 46.8991 65.9591 46.7075C66.4505 46.5158 66.9867 46.5306 67.5526 46.7665C67.7908 46.8844 68.044 46.9729 68.2972 47.0318C68.5503 47.0908 68.7886 47.1645 68.9822 47.2382C69.1758 47.312 69.3992 47.4299 69.6375 47.5921C69.8758 47.7543 69.9949 47.9607 69.9949 48.2408C69.9949 49.3465 70.0247 50.2459 70.0842 50.9388C70.1438 51.6317 70.2332 52.2215 70.3523 52.7228C70.4714 53.224 70.5906 53.6516 70.7097 54.0202C70.8289 54.4035 70.948 54.8016 71.0671 55.2291C71.1416 55.6272 71.1267 55.9663 71.0076 56.2317C70.8884 56.5118 70.5906 56.5413 70.114 56.3496C69.2354 56.04 68.5801 55.406 68.1631 54.4477C67.7462 53.4894 67.4334 52.6343 67.2398 51.8382C67.1952 51.676 67.1058 51.4106 66.942 51.0125C66.7782 50.6145 66.6888 50.3343 66.6441 50.1869C66.3314 50.1132 65.9442 50.2164 65.5123 50.5113C65.0805 50.8061 64.6784 51.2189 64.3507 51.7202C64.0082 52.2362 63.7848 52.826 63.6955 53.5042C63.5912 54.1823 63.7253 54.8458 64.0827 55.524C64.2465 55.7599 64.4699 56.0547 64.7677 56.3791C65.0656 56.7182 65.3634 57.0573 65.6613 57.4111C65.9591 57.765 66.2569 58.1188 66.5548 58.4432C66.8526 58.7675 67.1058 59.0476 67.2994 59.2393C67.5377 59.4752 67.7015 59.6079 67.776 59.6226C67.8504 59.6374 68.0589 59.5931 68.3716 59.4752C68.7737 59.2835 69.3843 59.0182 70.2034 58.7085C71.0225 58.3989 71.8862 58.0746 72.7797 57.765C73.6733 57.4554 74.537 57.19 75.3561 56.9688C76.1752 56.7477 76.8006 56.6445 77.2474 56.6445C77.5304 56.6445 77.724 56.7477 77.8431 56.9393C77.9622 57.0573 77.9474 57.2195 77.7835 57.4111C77.6197 57.6028 77.4112 57.8092 77.1581 58.0009C76.9049 58.1925 76.6219 58.3694 76.3539 58.5316C76.0709 58.6938 75.8922 58.7823 75.8178 58.8265C75.1327 59.2246 74.2839 59.6669 73.2414 60.1681C72.1989 60.6547 71.3054 61.1412 70.5459 61.613C70.4714 61.6867 70.3225 61.7752 70.0991 61.8489C69.8758 61.9226 69.7119 62.011 69.5928 62.0848C70.0694 63.1463 70.4119 64.0751 70.6055 64.8418C70.7991 65.6084 70.8735 66.3456 70.814 67.068C70.7544 67.7757 70.6055 68.4981 70.3672 69.2353C70.1289 69.9724 69.8013 70.8128 69.4141 71.7564C68.8482 72.6705 68.2823 73.5403 67.7015 74.3659C67.1207 75.1916 66.4803 75.9435 65.7506 76.6217C65.0358 77.2999 64.2465 77.8306 63.4125 78.2139C62.5786 78.612 61.6552 78.8037 60.6575 78.8037C60.0916 78.8037 59.5554 78.73 59.0342 78.5973C58.513 78.4646 58.0811 78.1697 57.7237 77.7422C56.8004 76.7544 56.294 75.6781 56.1749 74.5134C56.0558 73.3487 56.16 72.1987 56.4727 71.0487C56.711 70.341 57.0089 69.6923 57.3663 69.0878C58.2449 67.584 59.2129 66.3161 60.2703 65.2693C61.3425 64.2373 62.4445 63.2347 63.6061 62.2912ZM65.6464 64.9597C65.1996 65.402 64.6039 66.0212 63.8444 66.8321C63.0849 67.643 62.385 68.5276 61.7148 69.4712C61.0596 70.4147 60.5234 71.3583 60.1064 72.2871C59.6895 73.216 59.5852 74.0121 59.7788 74.6903C60.583 74.3365 61.4021 73.7467 62.236 72.9358C63.07 72.125 63.8146 71.2404 64.455 70.2673C65.0953 69.2942 65.5421 68.3359 65.7953 67.3924C66.0485 66.434 66.0038 65.6232 65.6464 64.9597Z" fill="#B1B1B1" stroke="white" stroke-miterlimit="10"/>
<path d="M53.896 86.2931C35.2658 86.2931 20.1055 71.2844 20.1055 52.8405C20.1055 34.3966 35.2658 19.3879 53.896 19.3879C72.5262 19.3879 87.6864 34.3966 87.6864 52.8405C87.6864 71.2844 72.5262 86.2931 53.896 86.2931ZM53.896 20.8623C36.0848 20.8623 21.5947 35.2075 21.5947 52.8405C21.5947 70.4735 36.0848 84.8188 53.896 84.8188C71.7071 84.8188 86.1972 70.4735 86.1972 52.8405C86.1972 35.2075 71.7071 20.8623 53.896 20.8623Z" fill="#B1B1B1"/>
</g>
</svg>
