<svg width="171" height="45" viewBox="0 0 171 45" fill="none" xmlns="http://www.w3.org/2000/svg">
<path d="M36.5734 44.9311H8.59466C3.99679 44.9311 0.270508 41.242 0.270508 36.6901V8.99116C0.270508 4.43928 3.99679 0.750244 8.59466 0.750244H36.5734C41.1713 0.750244 44.8976 4.43928 44.8976 8.99116V36.6901C44.8976 41.242 41.1713 44.9311 36.5734 44.9311Z" fill="#B1B1B1"/>
<path d="M30.6234 23.2471C31.4191 24.2351 31.8234 25.3855 31.8234 26.6861C31.8234 28.5994 31.1792 30.1 29.8908 31.1629C28.6023 32.2259 26.7581 32.7761 24.3581 32.7761H13.874V10.4543H24.1055C26.4045 10.4543 28.1729 10.9546 29.4234 11.9425C30.6739 12.9304 31.3055 14.3435 31.3055 16.1692C31.3055 17.5198 30.9392 18.6327 30.2192 19.5331C29.4992 20.4335 28.5518 21.0087 27.3771 21.2838C28.7539 21.609 29.8276 22.2592 30.6234 23.2471ZM19.3182 19.5831H22.8929C24.7876 19.5831 25.735 18.7828 25.735 17.1821C25.735 15.5815 24.7624 14.7811 22.8298 14.7811H19.3182V19.5831ZM26.2402 25.9358C26.2402 25.1354 25.975 24.5102 25.4445 24.06C24.914 23.6098 24.1561 23.3847 23.1834 23.3847H19.3308V28.3993H23.2213C25.2297 28.3868 26.2402 27.5739 26.2402 25.9358Z" fill="white"/>
<path d="M70.754 32.7761L65.8783 24.3476H64.6404V32.7761H59.1836V10.4543H68.493C70.274 10.4543 71.7898 10.7545 73.0151 11.3672C74.253 11.98 75.1751 12.8178 75.794 13.8808C76.4129 14.9437 76.7161 16.1567 76.7161 17.5323C76.7161 19.158 76.2614 20.5335 75.3645 21.6715C74.4551 22.8095 73.154 23.5848 71.4235 24.01L76.7793 32.7886H70.754V32.7761ZM64.6404 20.6586H68.013C69.0993 20.6586 69.8951 20.421 70.4004 19.9458C70.9056 19.4706 71.1709 18.7703 71.1709 17.8449C71.1709 16.957 70.9056 16.2693 70.3877 15.7565C69.8698 15.2563 69.074 14.9937 68.013 14.9937H64.6404V20.6586Z" fill="#B1B1B1"/>
<path d="M101.399 28.7119H92.9483L91.5462 32.7886H85.8115L94.0725 10.6294H100.35L108.611 32.7886H102.814L101.399 28.7119ZM99.9967 24.5977L97.1925 16.3943L94.3504 24.5977H99.9967Z" fill="#B1B1B1"/>
<path d="M138.711 32.7761H133.254L124.135 19.0704V32.7761H118.678V10.4543H124.135L133.254 24.2851V10.4543H138.711V32.7761Z" fill="#B1B1B1"/>
<path d="M169.305 27.3988C168.358 29.087 166.994 30.4126 165.225 31.363C163.444 32.3133 161.36 32.7885 158.96 32.7885H150.446V10.4668H158.96C161.385 10.4668 163.482 10.9295 165.238 11.8549C167.006 12.7803 168.358 14.0808 169.305 15.769C170.252 17.4572 170.72 19.383 170.72 21.5839C170.72 23.7598 170.24 25.6981 169.305 27.3988ZM163.431 26.2733C164.606 25.1604 165.2 23.5847 165.2 21.5714C165.2 19.5456 164.606 17.9824 163.431 16.8695C162.257 15.7565 160.602 15.1938 158.467 15.1938H155.89V27.949H158.467C160.602 27.949 162.257 27.3988 163.431 26.2733Z" fill="#B1B1B1"/>
</svg>
