<svg width="138" height="45" viewBox="0 0 138 45" fill="none" xmlns="http://www.w3.org/2000/svg">
<path d="M12.6958 0.961426V1.15309L11.8916 1.34475V9.8369L12.6958 10.0286V10.2202H8.88335V10.0286L9.68754 9.8369V2.59793L6.5304 10.3529H6.12828L2.03291 2.59793V9.6305L3.10515 10.0286V10.2202H0.558594V10.0286L1.63084 9.6305V1.34475L0.826643 1.15309V0.961426H2.49457C2.74773 0.961426 2.97112 0.990912 3.14983 1.04988C3.32854 1.10886 3.50727 1.18257 3.6413 1.28578C3.79022 1.38898 3.90936 1.50693 4.0136 1.63962C4.11785 1.77231 4.20721 1.93449 4.29656 2.09666L7.21543 7.62541L9.44926 2.09666C9.52372 1.905 9.5982 1.74282 9.70245 1.61013C9.7918 1.47744 9.91091 1.3595 10.0449 1.25629C10.179 1.15309 10.3428 1.07937 10.5364 1.03514C10.73 0.990911 10.9683 0.961426 11.2661 0.961426H12.6958Z" fill="#B1B1B1"/>
<path d="M17.4614 3.42358C18.0124 3.42358 18.5187 3.4973 18.9506 3.65948C19.3825 3.82165 19.7548 4.05755 20.0675 4.35241C20.3802 4.66202 20.6036 5.0306 20.7674 5.45816C20.9312 5.88572 21.0057 6.38699 21.0057 6.93249C21.0057 7.47799 20.9312 7.97927 20.7674 8.40682C20.6036 8.83438 20.3653 9.20296 20.0675 9.51257C19.7548 9.82218 19.3825 10.0433 18.9506 10.2055C18.5187 10.3677 18.0124 10.4414 17.4614 10.4414C16.9103 10.4414 16.404 10.3677 15.9721 10.2055C15.5403 10.0433 15.1679 9.80744 14.8552 9.51257C14.5425 9.20296 14.3191 8.83438 14.1553 8.40682C13.9915 7.97927 13.917 7.47799 13.917 6.93249C13.917 6.38699 13.9915 5.88572 14.1553 5.45816C14.3191 5.0306 14.5574 4.66202 14.8552 4.35241C15.1679 4.0428 15.5403 3.82165 15.9721 3.65948C16.404 3.4973 16.8954 3.42358 17.4614 3.42358ZM17.4614 10.1908C17.6103 10.1908 17.7592 10.1465 17.923 10.0433C18.0719 9.94013 18.2059 9.77795 18.3251 9.52732C18.4442 9.27668 18.5485 8.95233 18.6229 8.53951C18.6974 8.11196 18.7421 7.5812 18.7421 6.94724C18.7421 6.29853 18.6974 5.76777 18.6229 5.35496C18.5485 4.94214 18.4442 4.60305 18.3251 4.36716C18.2059 4.13126 18.0719 3.95434 17.923 3.85114C17.7741 3.74794 17.6252 3.70371 17.4614 3.70371C17.3124 3.70371 17.1635 3.74794 16.9997 3.85114C16.8508 3.95434 16.7167 4.11652 16.5976 4.36716C16.4784 4.61779 16.3742 4.94214 16.2998 5.35496C16.2253 5.78251 16.1806 6.31327 16.1806 6.94724C16.1806 7.59594 16.2253 8.1267 16.2998 8.53951C16.3742 8.95233 16.4784 9.29142 16.5976 9.52732C16.7167 9.76321 16.8508 9.94013 16.9997 10.0433C17.1486 10.1318 17.2975 10.1908 17.4614 10.1908Z" fill="#B1B1B1"/>
<path d="M27.5133 0.961426C28.3175 0.961426 28.7196 1.35949 28.7196 2.15563V9.85165L29.5238 10.0433V10.235H28.3175C27.9899 10.235 27.7367 10.1907 27.5431 10.0875C27.3495 9.98434 27.1857 9.86639 27.0814 9.74844C26.9474 9.60101 26.8432 9.42409 26.7836 9.24717C26.6645 9.48306 26.5155 9.67473 26.3368 9.85165C26.1879 9.99908 25.9794 10.1318 25.7262 10.2645C25.4731 10.3971 25.1752 10.4561 24.8327 10.4561C24.4455 10.4561 24.0881 10.3824 23.7604 10.235C23.4179 10.0875 23.135 9.86639 22.8967 9.57152C22.6584 9.27666 22.45 8.90807 22.3159 8.48052C22.167 8.03822 22.1074 7.53694 22.1074 6.94721C22.1074 6.35748 22.1819 5.85621 22.3159 5.41391C22.4649 4.97161 22.6584 4.61777 22.9265 4.3229C23.1796 4.02804 23.4924 3.80689 23.8498 3.65945C24.2072 3.51202 24.6093 3.4383 25.0561 3.4383C25.2944 3.4383 25.5029 3.46779 25.6965 3.51202C25.8901 3.57099 26.0539 3.62997 26.1879 3.70368C26.3517 3.7774 26.4857 3.86586 26.6049 3.96906V1.38898L25.8007 1.19732V1.00566H27.5133V0.961426ZM26.5751 4.35239C26.4708 4.24918 26.3815 4.16073 26.2624 4.08701C26.1581 4.01329 26.0539 3.95432 25.9347 3.89535C25.8156 3.83637 25.6965 3.82163 25.5624 3.82163C25.3986 3.82163 25.2348 3.86586 25.0859 3.95432C24.9369 4.04278 24.8178 4.19021 24.6987 4.41136C24.5944 4.63251 24.5051 4.95686 24.4455 5.35493C24.3859 5.76775 24.3562 6.28376 24.3562 6.93247C24.3562 7.56643 24.3859 8.0677 24.4455 8.46577C24.5051 8.86384 24.5796 9.17345 24.6838 9.3946C24.7731 9.61575 24.8774 9.77793 25.0114 9.85165C25.1306 9.92536 25.2497 9.96959 25.3688 9.96959C25.5773 9.96959 25.756 9.91062 25.9049 9.80742C26.0538 9.70421 26.173 9.57152 26.2772 9.43883C26.3964 9.27666 26.5006 9.09974 26.59 8.90807V4.35239H26.5751Z" fill="#B1B1B1"/>
<path d="M34.0065 10.4563C32.8598 10.4563 31.9663 10.1467 31.3408 9.52747C30.7005 8.90825 30.3877 8.03839 30.3877 6.94738C30.3877 6.40188 30.4622 5.90061 30.626 5.47305C30.7898 5.0455 31.0132 4.67691 31.2961 4.3673C31.5791 4.05769 31.9216 3.83655 32.3386 3.67437C32.7407 3.51219 33.1874 3.43848 33.6789 3.43848C34.1852 3.43848 34.632 3.51219 35.0192 3.64488C35.4213 3.79232 35.7489 3.98398 36.0319 4.21987C36.3148 4.45577 36.5233 4.73589 36.6722 5.06024C36.8211 5.3846 36.8956 5.72369 36.8956 6.09227C36.8956 6.21022 36.8956 6.32817 36.8807 6.41663C36.8658 6.50509 36.851 6.59355 36.8361 6.66726C36.8063 6.75572 36.7914 6.82944 36.7616 6.88841C36.3744 6.96213 35.9574 7.03585 35.5106 7.08008C35.1383 7.13905 34.7065 7.18328 34.215 7.21276C33.7236 7.24225 33.2172 7.27174 32.6811 7.27174C32.6811 7.81724 32.7258 8.27429 32.8002 8.64287C32.8747 9.01145 32.9938 9.30632 33.1279 9.51272C33.2768 9.73387 33.4406 9.88131 33.6342 9.96977C33.8278 10.0582 34.0512 10.1025 34.2746 10.1025C34.5427 10.1025 34.7958 10.0582 35.0341 9.95502C35.2723 9.85182 35.4808 9.73387 35.6447 9.5717C35.8234 9.40952 35.9574 9.21786 36.0616 9.01145C36.1659 8.80505 36.2106 8.59864 36.2106 8.37749H36.5382C36.5382 8.64287 36.4786 8.8935 36.3595 9.14414C36.2404 9.39478 36.0616 9.61593 35.8383 9.80759C35.6149 9.99925 35.3468 10.1467 35.0341 10.2646C34.7362 10.3973 34.3937 10.4563 34.0065 10.4563ZM32.6662 6.93264C32.9641 6.93264 33.2321 6.93264 33.4704 6.9179C33.7087 6.90316 33.9023 6.88841 34.0661 6.87367C34.2597 6.85893 34.4086 6.82944 34.5426 6.81469C34.5575 6.72623 34.5873 6.62303 34.6022 6.51983C34.6171 6.41663 34.632 6.31342 34.6469 6.19548C34.6618 6.07753 34.6618 5.94484 34.6618 5.81215C34.6618 5.41408 34.632 5.07499 34.5724 4.80961C34.5128 4.54423 34.4384 4.32307 34.3341 4.14616C34.2448 3.98398 34.1405 3.85129 34.0065 3.79232C33.8725 3.73334 33.7682 3.68911 33.6491 3.68911C33.53 3.68911 33.4108 3.73334 33.2917 3.8218C33.1726 3.91026 33.0683 4.07244 32.9641 4.29359C32.8747 4.52948 32.7854 4.85383 32.7258 5.28139C32.6662 5.70895 32.6662 6.25445 32.6662 6.93264Z" fill="#B1B1B1"/>
<path d="M42.525 3.8805C42.257 3.8805 42.0187 3.93948 41.8102 4.04268C41.6017 4.14588 41.423 4.27857 41.2741 4.41126C41.1103 4.57344 40.9762 4.75036 40.8422 4.94202V9.85155L41.6464 10.0432V10.2349H37.8936V10.0432L38.6977 9.85155V4.01319L37.8936 3.82153V3.62987H39.0998C39.4126 3.62987 39.6657 3.68884 39.8742 3.79205C40.0678 3.89525 40.2316 4.01319 40.3508 4.13114C40.4848 4.27857 40.5891 4.44075 40.6486 4.61767C40.7827 4.42601 40.9465 4.24909 41.1401 4.08691C41.3039 3.95422 41.5124 3.83628 41.7655 3.71833C42.0187 3.60038 42.3017 3.55615 42.6442 3.55615C43.1207 3.55615 43.4781 3.6741 43.7164 3.8805C43.9547 4.10165 44.0589 4.41127 44.0589 4.80933C44.0589 5.1042 43.9696 5.35484 43.7909 5.53176C43.6122 5.70868 43.359 5.79714 43.0612 5.79714C42.9867 5.79714 42.9271 5.79714 42.8527 5.79714C42.7782 5.79714 42.7335 5.78239 42.6889 5.78239C42.6293 5.76765 42.5697 5.76765 42.525 5.73816V3.8805Z" fill="#B1B1B1"/>
<path d="M49.8219 5.60569C49.8219 5.31082 49.7921 5.04545 49.7325 4.8243C49.6729 4.60315 49.5985 4.42623 49.4943 4.29354C49.4049 4.1461 49.3007 4.0429 49.1666 3.98392C49.0475 3.92495 48.9283 3.88072 48.8092 3.88072C48.6007 3.88072 48.422 3.9397 48.2731 4.0429C48.1242 4.1461 47.9901 4.27879 47.9008 4.41148C47.7817 4.57366 47.6923 4.75058 47.6029 4.94224V9.85177L48.4071 10.0434V10.2351H44.6543V10.0434L45.4584 9.85177V4.01341L44.6543 3.82175V3.63008H45.8606C46.1733 3.63008 46.4265 3.68906 46.6349 3.79226C46.8285 3.89547 46.9924 4.01341 47.1115 4.13136C47.2455 4.27879 47.3498 4.44097 47.4093 4.61789C47.5285 4.39674 47.6774 4.19033 47.8561 4.01341C48.005 3.86598 48.2135 3.73329 48.4518 3.6006C48.6901 3.46791 49.0028 3.40894 49.3602 3.40894C49.7474 3.40894 50.1048 3.46791 50.4176 3.6006C50.7452 3.71855 51.0133 3.89547 51.2366 4.08713C51.46 4.29354 51.6388 4.51468 51.7728 4.78006C51.9068 5.04544 51.9663 5.31082 51.9663 5.59095V9.83702L52.7705 10.0287V10.2203H51.0282C50.224 10.2203 49.8219 9.82228 49.8219 9.02614V5.60569Z" fill="#B1B1B1"/>
<path d="M1.97363 19.5528V19.0073H12.3237V19.5528L10.1495 20.0983V31.2295H17.953V20.0983L15.7787 19.5528V19.0073H26.1288V19.5528L23.9545 20.0983V43.0979L26.1288 43.6434V44.1889H15.7787V43.6287L17.953 43.0832V32.1289H10.1495V43.0832L12.3237 43.6287V44.1742H1.97363V43.6287L4.14789 43.0832V20.0836L1.97363 19.5528Z" fill="#B1B1B1"/>
<path d="M38.9954 25.6565C40.4995 25.6565 41.8398 25.8776 43.0312 26.3052C44.2225 26.7328 45.2203 27.3667 46.0543 28.1923C46.8882 29.018 47.5286 30.0205 47.9605 31.2C48.3924 32.3794 48.6157 33.7063 48.6157 35.1954C48.6157 36.6845 48.3924 38.0114 47.9605 39.1909C47.5286 40.3703 46.8882 41.3581 46.0543 42.1838C45.2203 43.0094 44.2076 43.6433 43.0312 44.0709C41.8398 44.4985 40.4995 44.7196 38.9954 44.7196C37.4913 44.7196 36.151 44.4985 34.9596 44.0709C33.7682 43.6433 32.7704 43.0094 31.9365 42.1838C31.1025 41.3581 30.4621 40.3556 30.0303 39.1909C29.5984 38.0114 29.375 36.6845 29.375 35.1954C29.375 33.7063 29.5984 32.3794 30.0303 31.2C30.4621 30.0205 31.1025 29.0327 31.9365 28.1923C32.7704 27.352 33.7831 26.7328 34.9596 26.3052C36.151 25.8776 37.4913 25.6565 38.9954 25.6565ZM38.9954 43.9824C39.4124 43.9824 39.8145 43.8497 40.2315 43.5844C40.6484 43.319 41.0058 42.8619 41.3335 42.1985C41.6611 41.535 41.9292 40.6357 42.1377 39.5005C42.3462 38.3652 42.4504 36.9204 42.4504 35.1659C42.4504 33.4115 42.3462 31.9666 42.1377 30.8314C41.9292 29.6962 41.6611 28.7968 41.3335 28.1334C41.0058 27.4699 40.6335 27.0129 40.2315 26.7475C39.8294 26.4821 39.4124 26.3494 38.9954 26.3494C38.5784 26.3494 38.1763 26.4821 37.7593 26.7475C37.3424 27.0129 36.9849 27.4699 36.6573 28.1334C36.3297 28.7968 36.0616 29.6962 35.8531 30.8314C35.6446 31.9666 35.5404 33.4115 35.5404 35.1659C35.5404 36.9204 35.6446 38.3652 35.8531 39.5005C36.0616 40.6357 36.3297 41.535 36.6573 42.1985C36.9849 42.8619 37.3572 43.319 37.7593 43.5844C38.1763 43.8497 38.5784 43.9824 38.9954 43.9824Z" fill="#B1B1B1"/>
<path d="M75.8239 31.5833C75.8239 30.7281 75.7495 29.991 75.6006 29.416C75.4516 28.841 75.2729 28.3545 75.0347 27.9859C74.7964 27.6173 74.5432 27.3519 74.2751 27.175C73.9922 27.0128 73.7241 26.9244 73.4561 26.9244C72.9944 26.9244 72.5923 27.0718 72.2349 27.3667C71.8775 27.6615 71.5797 28.0006 71.3116 28.3545C71.0286 28.782 70.7606 29.2686 70.5521 29.7846V43.083L72.7412 43.6285V44.174H62.5847V43.6285L64.759 43.083V31.5833C64.759 30.7281 64.6845 29.991 64.5356 29.416C64.3867 28.841 64.208 28.3545 63.9697 27.9859C63.7314 27.6173 63.4783 27.3519 63.2102 27.175C62.9273 27.0128 62.6592 26.9244 62.3911 26.9244C61.9294 26.9244 61.5274 27.0718 61.17 27.3667C60.8126 27.6615 60.5147 28.0006 60.2466 28.3545C59.9488 28.782 59.6956 29.2686 59.4871 29.7846V43.083L61.6614 43.6285V44.174H51.5049V43.6285L53.6792 43.083V27.2782L51.5049 26.7327V26.1872H54.7663C55.6151 26.1872 56.3151 26.3346 56.8512 26.6148C57.4022 26.8949 57.8192 27.2192 58.1469 27.5436C58.5043 27.9564 58.7723 28.3987 58.951 28.8705C59.2637 28.266 59.6509 27.7353 60.1126 27.2487C60.5296 26.8359 61.0359 26.4673 61.6316 26.1282C62.2422 25.7891 62.9719 25.627 63.8506 25.627C65.2951 25.627 66.5609 25.9513 67.6034 26.5853C68.6607 27.2192 69.465 28.0449 70.016 29.0474C70.3287 28.4282 70.7159 27.8679 71.1776 27.3519C71.5945 26.9244 72.1009 26.5263 72.6966 26.1725C73.3071 25.8186 74.0368 25.627 74.9155 25.627C75.9133 25.627 76.8068 25.7891 77.6408 26.0987C78.4599 26.4083 79.1747 26.8359 79.7704 27.3814C80.3661 27.9269 80.8277 28.5461 81.1553 29.2686C81.483 29.991 81.6468 30.7576 81.6468 31.5685V43.0683L83.8211 43.6138V44.1593H79.1002C76.9259 44.1593 75.8388 43.083 75.8388 40.9305V31.5833H75.8239Z" fill="#B1B1B1"/>
<path d="M95.7942 44.705C92.6967 44.705 90.2841 43.8646 88.5715 42.1691C86.8589 40.4736 85.9951 38.1589 85.9951 35.1808C85.9951 33.6917 86.2185 32.3648 86.6504 31.1853C87.0823 30.0059 87.6928 29.0181 88.4672 28.1777C89.2416 27.3521 90.1799 26.7181 91.2819 26.2905C92.3839 25.863 93.5902 25.6418 94.8858 25.6418C96.241 25.6418 97.4622 25.8335 98.5344 26.2168C99.6066 26.6002 100.53 27.1162 101.275 27.7649C102.019 28.4136 102.6 29.1802 103.002 30.0501C103.404 30.9199 103.598 31.8488 103.598 32.8366C103.598 33.1757 103.583 33.4705 103.538 33.7212C103.493 33.9718 103.464 34.193 103.404 34.3846C103.33 34.6205 103.27 34.8269 103.225 34.9891C102.153 35.2103 101.036 35.3872 99.8449 35.5346C98.8323 35.682 97.6557 35.8 96.3303 35.9179C95.0049 36.0211 93.6051 36.0801 92.1605 36.0801C92.1605 37.5692 92.2648 38.8076 92.4882 39.7954C92.7115 40.7832 93.0094 41.5794 93.3966 42.1691C93.7838 42.7588 94.2454 43.1716 94.7815 43.4223C95.3176 43.6729 95.8985 43.8056 96.5239 43.8056C97.2537 43.8056 97.9387 43.6729 98.5791 43.4075C99.2194 43.1422 99.7704 42.7883 100.247 42.346C100.724 41.9037 101.096 41.4024 101.379 40.8422C101.662 40.282 101.796 39.707 101.796 39.132H102.704C102.704 39.8544 102.54 40.5473 102.213 41.2108C101.885 41.889 101.423 42.4787 100.813 42.9947C100.202 43.5107 99.4875 43.9236 98.6387 44.2332C97.7749 44.5428 96.8218 44.705 95.7942 44.705ZM92.1605 35.1808C92.9796 35.1808 93.7093 35.166 94.3348 35.1218C94.9603 35.0776 95.4964 35.0481 95.9283 35.0038C96.4346 34.9596 96.8665 34.9006 97.2388 34.8269C97.2835 34.591 97.343 34.3257 97.4175 34.0308C97.4622 33.7654 97.5068 33.4705 97.5366 33.1462C97.5664 32.8218 97.5962 32.4827 97.5962 32.1289C97.5962 31.0526 97.5068 30.1533 97.343 29.4161C97.1792 28.679 96.9558 28.0892 96.7026 27.6322C96.4495 27.1751 96.1516 26.8508 95.8389 26.6591C95.5113 26.4675 95.1836 26.3643 94.8709 26.3643C94.5581 26.3643 94.2305 26.4822 93.9029 26.7034C93.5753 26.9393 93.2923 27.3668 93.0392 28.0008C92.786 28.6347 92.5775 29.5341 92.3988 30.6841C92.2499 31.834 92.1605 33.3379 92.1605 35.1808Z" fill="#B1B1B1"/>
<path d="M121.424 43.8055V29.2244L108.408 19.022V43.8055H121.424Z" fill="#B1B1B1"/>
<path d="M137.522 43.8055V29.2244L124.715 19.022V43.8055H137.522Z" fill="#B1B1B1"/>
</svg>
