<svg width="123" height="50" viewBox="0 0 123 50" fill="none" xmlns="http://www.w3.org/2000/svg">
<path d="M0.682617 30.6494V0.484619H18.6278V30.6347H0.682617V30.6494ZM16.4535 23.6316L16.9152 20.2996L15.2472 20.1375L14.7409 22.7028C13.6984 23.2188 12.4177 23.4695 10.8838 23.4695C8.7989 23.4695 7.14585 22.8207 5.93958 21.5086C4.71841 20.1964 4.12272 18.4715 4.12272 16.3189C4.12272 14.2254 4.71841 12.5004 5.8949 11.144C7.07139 9.78765 8.62022 9.10946 10.5413 9.10946C11.5242 9.10946 12.3581 9.22741 13.0283 9.44855C13.6984 9.66971 14.309 9.96457 14.8898 10.3479L15.3813 12.8837L17.079 12.7216L16.5876 9.38958C15.8727 8.78511 15.0238 8.29858 14.041 7.91525C13.0581 7.54667 11.8369 7.355 10.3924 7.355C8.67978 7.355 7.20545 7.76782 5.96939 8.60819C4.73333 9.44856 3.76533 10.5543 3.08029 11.9254C2.39525 13.3113 2.05272 14.8004 2.05272 16.3927C2.05272 18.9138 2.84201 21.0221 4.42058 22.7028C5.99916 24.3835 8.05428 25.2239 10.6009 25.2239C13.1028 25.2239 15.0537 24.6931 16.4535 23.6316Z" fill="#B1B1B1"/>
<path d="M24.7188 30.6494V0.484619H32.4329V30.6347H24.7188V30.6494ZM25.5378 24.9585H31.6287V23.44H29.529V6.6031H25.508V8.12166H27.6376V23.44H25.5378V24.9585Z" fill="#B1B1B1"/>
<path d="M38.5244 30.6494V0.484619H52.0764V30.6347H38.5244V30.6494ZM40.9816 13.9895L40.5498 16.7318L42.1134 16.9234L42.5751 14.8741C43.2453 14.5497 44.0048 14.3876 44.8983 14.3876C45.9705 14.3876 46.7003 14.6529 47.0726 15.1837C47.4449 15.7145 47.6236 16.4074 47.6236 17.2625V18.324C47.296 18.2945 46.9534 18.2651 46.5811 18.2503C46.2088 18.2356 45.8514 18.2208 45.494 18.2208C44.1537 18.2208 42.8729 18.4567 41.6816 18.9285C40.4902 19.4003 39.8945 20.3881 39.8945 21.8772C39.8945 23.1451 40.2966 24.015 41.1157 24.4867C41.9348 24.9733 42.7389 25.2092 43.5282 25.2092C44.4962 25.2092 45.3302 24.9585 46.0152 24.4573C46.7003 23.956 47.2364 23.3957 47.6236 22.747V22.806C47.6534 24.413 48.3831 25.2092 49.8128 25.2092C50.3638 25.2092 50.885 25.0765 51.3764 24.8111L51.3467 23.5874C51.1084 23.6906 50.8403 23.7496 50.5425 23.7496C49.8574 23.7496 49.5149 23.322 49.5149 22.4669V16.8202C49.5149 14.1664 48.0852 12.8395 45.2259 12.8395C44.4366 12.8395 43.692 12.928 42.9921 13.1049C42.2773 13.2966 41.6071 13.5914 40.9816 13.9895ZM47.6087 20.506C47.5342 21.4791 47.1321 22.2605 46.4024 22.8207C45.6727 23.3957 44.8983 23.6759 44.0643 23.6759C43.5431 23.6759 43.0368 23.5284 42.5602 23.2483C42.0688 22.9682 41.8305 22.4374 41.8305 21.6708C41.8305 20.7419 42.2028 20.1522 42.9176 19.8721C43.6474 19.592 44.4515 19.4593 45.3599 19.4593C45.762 19.4593 46.1492 19.474 46.5215 19.5182C46.8938 19.5477 47.2662 19.5772 47.5938 19.592V20.506H47.6087Z" fill="#B1B1B1"/>
<path d="M58.1816 30.6494V0.484619H70.4975V30.6347H58.1816V30.6494ZM69.2019 21.5233C69.2019 20.5798 68.9487 19.8868 68.4424 19.4298C67.936 18.9727 67.3255 18.6631 66.5808 18.4862C65.8362 18.3093 65.1065 18.1619 64.3768 18.0439C63.6471 17.926 63.0216 17.7343 62.5153 17.4837C62.009 17.233 61.7558 16.7907 61.7558 16.1568C61.7558 15.5523 61.994 15.11 62.4855 14.8151C62.9769 14.5203 63.5875 14.3876 64.347 14.3876C65.2256 14.3876 66.0448 14.5792 66.8043 14.9773L67.1021 16.8939L68.6658 16.7023L68.3679 13.9305C67.8616 13.6209 67.251 13.3703 66.5213 13.1639C65.7916 12.9575 65.0172 12.8395 64.1832 12.8395C63.0812 12.8395 62.0685 13.1049 61.1303 13.6209C60.1921 14.1369 59.7304 15.0215 59.7304 16.2895C59.7304 17.2183 59.9836 17.8965 60.4899 18.324C60.9963 18.7663 61.6218 19.0612 62.3813 19.2381C63.1408 19.415 63.8853 19.5625 64.63 19.6952C65.3746 19.8131 66.0001 20.0195 66.5064 20.2849C67.0127 20.5503 67.2659 21.0073 67.2659 21.6708C67.2659 22.349 66.9382 22.8502 66.283 23.1746C65.6277 23.4989 64.8831 23.6611 64.0343 23.6611C63.0812 23.6611 62.1876 23.4695 61.3686 23.0714L61.443 21.4938L59.9389 21.3317L59.5666 24.0297C60.0878 24.3688 60.7729 24.6489 61.6068 24.8701C62.4408 25.0912 63.2748 25.2092 64.1236 25.2092C65.5682 25.2092 66.7745 24.8848 67.7425 24.2214C68.7105 23.5874 69.2019 22.6733 69.2019 21.5233Z" fill="#B1B1B1"/>
<path d="M76.5879 30.6494V0.484619H88.9037V30.6347H76.5879V30.6494ZM87.6081 21.5233C87.6081 20.5798 87.3549 19.8868 86.8486 19.4298C86.3422 18.9727 85.7317 18.6631 84.987 18.4862C84.2424 18.3093 83.5127 18.1619 82.783 18.0439C82.0533 17.926 81.4278 17.7343 80.9215 17.4837C80.4152 17.233 80.162 16.7907 80.162 16.1568C80.162 15.5523 80.4002 15.11 80.8917 14.8151C81.3831 14.5203 81.9937 14.3876 82.7532 14.3876C83.6319 14.3876 84.451 14.5792 85.2105 14.9773L85.5083 16.8939L87.072 16.7023L86.7741 13.9305C86.2678 13.6209 85.6572 13.3703 84.9275 13.1639C84.1978 12.9575 83.4234 12.8395 82.5894 12.8395C81.4874 12.8395 80.4747 13.1049 79.5365 13.6209C78.5983 14.1369 78.1367 15.0215 78.1367 16.2895C78.1367 17.2183 78.3898 17.8965 78.8962 18.324C79.4025 18.7663 80.028 19.0612 80.7875 19.2381C81.547 19.415 82.2916 19.5625 83.0362 19.6952C83.7808 19.8131 84.4063 20.0195 84.9126 20.2849C85.4189 20.5503 85.6721 21.0073 85.6721 21.6708C85.6721 22.349 85.3445 22.8502 84.6893 23.1746C84.034 23.4989 83.2894 23.6611 82.4405 23.6611C81.4874 23.6611 80.5938 23.4695 79.7748 23.0714L79.8493 21.4938L78.3452 21.3317L77.9729 24.0297C78.4941 24.3688 79.1791 24.6489 80.0131 24.8701C80.8471 25.0912 81.681 25.2092 82.5299 25.2092C83.9744 25.2092 85.1807 24.8848 86.1487 24.2214C87.1167 23.5874 87.6081 22.6733 87.6081 21.5233Z" fill="#B1B1B1"/>
<path d="M94.9951 30.6494V0.484619H103.111V30.6347H94.9951V30.6494ZM96.1865 24.9585H102.277V23.44H100.178V13.0902H96.1418V14.6087H98.3012V23.44H96.2014V24.9585H96.1865ZM98.0927 7.5909V10.0235H100.148V7.5909H98.0927Z" fill="#B1B1B1"/>
<path d="M109.202 30.6494V0.484619H122.173V30.6347H109.202V30.6494ZM121.012 20.9631L119.388 20.6092C119.031 22.6143 117.944 23.6169 116.157 23.6169C114.966 23.6169 114.057 23.2188 113.432 22.4227C112.806 21.6265 112.493 20.506 112.493 19.0907C112.493 17.808 112.776 16.717 113.327 15.8029C113.878 14.8888 114.802 14.4465 116.082 14.4465C117.065 14.4465 117.929 14.6677 118.644 15.11L119.106 17.1151L120.669 16.9234L120.208 14.0632C119.597 13.6062 118.957 13.2818 118.286 13.1049C117.616 12.928 116.887 12.8395 116.097 12.8395C114.236 12.8395 112.821 13.4882 111.898 14.7856C110.959 16.083 110.498 17.5574 110.498 19.1939C110.498 21.0958 110.989 22.5848 111.987 23.6316C112.97 24.6931 114.295 25.2239 115.948 25.2239C117.601 25.2239 118.823 24.7669 119.597 23.8675C120.371 22.9534 120.848 21.9951 121.012 20.9631Z" fill="#B1B1B1"/>
<path d="M8.44129 47.1175C8.09877 47.7368 7.59242 48.2233 6.93716 48.5624C6.26701 48.9015 5.47771 49.0784 4.5544 49.0784H1.88867V40.7632H4.5544C5.47771 40.7632 6.2819 40.9254 6.93716 41.2645C7.59242 41.6036 8.09877 42.0753 8.44129 42.7093C8.78382 43.3433 8.94762 44.0657 8.94762 44.9208C8.94762 45.7612 8.78382 46.4983 8.44129 47.1175ZM6.96693 47.2797C7.54773 46.7195 7.83071 45.9381 7.83071 44.9208C7.83071 43.9035 7.54773 43.1221 6.96693 42.5619C6.38613 42.0016 5.55217 41.7215 4.45014 41.7215H2.94605V48.1201H4.45014C5.55217 48.1201 6.38613 47.84 6.96693 47.2797Z" fill="#B1B1B1"/>
<path d="M14.4729 41.633V44.4785H17.6599V45.3041H14.4729V48.2086H18.0173V49.0784H13.3857V40.7632H18.0173V41.633H14.4729Z" fill="#B1B1B1"/>
<path d="M27.4286 48.017C27.235 48.3561 26.952 48.6362 26.5648 48.8426C26.1776 49.049 25.7011 49.167 25.1203 49.167C24.5692 49.167 24.0629 49.0638 23.631 48.8721C23.1992 48.6657 22.8567 48.4003 22.5886 48.0465C22.3354 47.6926 22.1865 47.2946 22.1418 46.8523H23.3034C23.3332 47.0881 23.4077 47.324 23.5417 47.5452C23.6757 47.7663 23.8842 47.958 24.1374 48.1054C24.3905 48.2529 24.7033 48.3266 25.0756 48.3266C25.5521 48.3266 25.9245 48.2086 26.1776 47.9433C26.4308 47.6779 26.5648 47.3683 26.5648 46.9702C26.5648 46.6311 26.4755 46.351 26.2968 46.1446C26.1181 45.9382 25.8947 45.7612 25.6415 45.6433C25.3883 45.5254 25.016 45.3927 24.5693 45.2452C24.0331 45.0683 23.6162 44.9061 23.2885 44.7587C22.9609 44.6113 22.6928 44.3754 22.4694 44.0658C22.2461 43.7562 22.127 43.3581 22.127 42.8568C22.127 42.4293 22.2312 42.0459 22.4397 41.7068C22.6482 41.3825 22.946 41.1171 23.3481 40.9402C23.7353 40.7633 24.2119 40.6748 24.7331 40.6748C25.5522 40.6748 26.2223 40.8665 26.6988 41.2645C27.1903 41.6626 27.4584 42.1639 27.5477 42.7831H26.3861C26.3265 42.4587 26.1478 42.1639 25.8798 41.9132C25.5968 41.6626 25.2245 41.5299 24.748 41.5299C24.3161 41.5299 23.9587 41.6479 23.7055 41.869C23.4375 42.0902 23.3183 42.4145 23.3183 42.8126C23.3183 43.1369 23.4077 43.4023 23.5715 43.594C23.7502 43.8004 23.9587 43.9478 24.2119 44.0658C24.465 44.1837 24.8224 44.3017 25.2543 44.4491C25.7904 44.626 26.2223 44.7882 26.5648 44.9504C26.8924 45.1125 27.1754 45.3484 27.3988 45.658C27.6222 45.9677 27.7413 46.3952 27.7413 46.926C27.7115 47.3093 27.6222 47.6779 27.4286 48.017Z" fill="#B1B1B1"/>
<path d="M33.2366 40.7632V49.0784H32.1494V40.7632H33.2366Z" fill="#B1B1B1"/>
<path d="M44.2272 41.3972C44.8973 41.8837 45.3441 42.5324 45.5675 43.3581H44.4208C44.2272 42.8568 43.8846 42.444 43.423 42.1491C42.9613 41.8395 42.4103 41.6921 41.77 41.6921C41.2041 41.6921 40.6828 41.8248 40.236 42.0901C39.7893 42.3555 39.4319 42.7241 39.1638 43.2106C38.9107 43.6972 38.7766 44.2722 38.7766 44.9356C38.7766 45.6138 38.9107 46.2035 39.1638 46.6901C39.417 47.1766 39.7893 47.5599 40.2509 47.8253C40.7126 48.0907 41.2487 48.2234 41.8593 48.2234C42.3805 48.2234 42.8422 48.1054 43.2741 47.899C43.7059 47.6779 44.0484 47.3535 44.3314 46.9407C44.6143 46.5279 44.7633 46.0266 44.8229 45.4664H41.5168V44.6702H45.7313V45.658C45.6568 46.3215 45.4483 46.9112 45.1058 47.4567C44.7633 48.0022 44.3016 48.415 43.7208 48.7246C43.1401 49.0342 42.4848 49.1964 41.7402 49.1964C40.936 49.1964 40.2211 49.0195 39.5957 48.6657C38.9702 48.3118 38.4936 47.8106 38.1511 47.1618C37.8086 46.5279 37.6299 45.7907 37.6299 44.9651C37.6299 44.1395 37.8086 43.4023 38.1511 42.7683C38.4936 42.1344 38.9851 41.6184 39.5957 41.2645C40.2063 40.9107 40.9211 40.719 41.7252 40.719C42.7379 40.6895 43.557 40.9254 44.2272 41.3972Z" fill="#B1B1B1"/>
<path d="M56.7213 49.0784H55.6342L51.2707 42.5029V49.0784H50.1836V40.7632H51.2707L55.6342 47.3387V40.7632H56.7213V49.0784Z" fill="#B1B1B1"/>
<path d="M72.3885 48.017C72.1949 48.3561 71.912 48.6362 71.5248 48.8426C71.1376 49.049 70.6611 49.167 70.0803 49.167C69.5293 49.167 69.0229 49.0638 68.591 48.8721C68.1592 48.6657 67.8166 48.4003 67.5486 48.0465C67.2954 47.6926 67.1465 47.2946 67.1018 46.8523H68.2634C68.2932 47.0881 68.3677 47.324 68.5017 47.5452C68.6357 47.7663 68.8442 47.958 69.0973 48.1054C69.3505 48.2529 69.6632 48.3266 70.0355 48.3266C70.5121 48.3266 70.8844 48.2086 71.1376 47.9433C71.3907 47.6779 71.5248 47.3683 71.5248 46.9702C71.5248 46.6311 71.4354 46.351 71.2567 46.1446C71.078 45.9382 70.8546 45.7612 70.6015 45.6433C70.3483 45.5254 69.976 45.3927 69.5293 45.2452C68.9931 45.0683 68.5761 44.9061 68.2485 44.7587C67.9208 44.6113 67.6528 44.3754 67.4294 44.0658C67.206 43.7562 67.0869 43.3581 67.0869 42.8568C67.0869 42.4293 67.1911 42.0459 67.3996 41.7068C67.6081 41.3825 67.906 41.1171 68.3081 40.9402C68.6953 40.7633 69.1718 40.6748 69.6931 40.6748C70.5121 40.6748 71.1823 40.8665 71.6588 41.2645C72.1503 41.6626 72.4184 42.1639 72.5077 42.7831H71.3461C71.2865 42.4587 71.1078 42.1639 70.8397 41.9132C70.5567 41.6626 70.1845 41.5299 69.708 41.5299C69.2761 41.5299 68.9187 41.6479 68.6655 41.869C68.3974 42.0902 68.2783 42.4145 68.2783 42.8126C68.2783 43.1369 68.3676 43.4023 68.5314 43.594C68.7101 43.8004 68.9186 43.9478 69.1718 44.0658C69.4249 44.1837 69.7824 44.3017 70.2142 44.4491C70.7504 44.626 71.1823 44.7882 71.5248 44.9504C71.8524 45.1125 72.1354 45.3484 72.3587 45.658C72.5821 45.9677 72.7012 46.3952 72.7012 46.926C72.6714 47.3093 72.5821 47.6779 72.3885 48.017Z" fill="#B1B1B1"/>
<path d="M82.2617 40.7632V41.633H79.8937V49.0784H78.7917V41.633H76.4238V40.7632H82.2617Z" fill="#B1B1B1"/>
<path d="M87.3258 40.7632V45.7464C87.3258 46.5573 87.5045 47.1618 87.8769 47.5599C88.2492 47.9432 88.7406 48.1496 89.3959 48.1496C90.0363 48.1496 90.5277 47.9579 90.8851 47.5599C91.2425 47.1618 91.4212 46.572 91.4212 45.7612V40.7779H92.5084V45.7612C92.5084 46.8964 92.2254 47.7515 91.6595 48.3118C91.0936 48.8868 90.3341 49.1669 89.381 49.1669C88.4428 49.1669 87.6833 48.8868 87.1174 48.3118C86.5515 47.7368 86.2686 46.8964 86.2686 45.7612V40.7779H87.3258V40.7632Z" fill="#B1B1B1"/>
<path d="M103.721 47.1175C103.379 47.7368 102.873 48.2233 102.217 48.5624C101.547 48.9015 100.758 49.0784 99.8346 49.0784H97.1689V40.7632H99.8346C100.758 40.7632 101.562 40.9254 102.217 41.2645C102.873 41.6036 103.379 42.0753 103.721 42.7093C104.064 43.3433 104.228 44.0657 104.228 44.9208C104.228 45.7612 104.064 46.4983 103.721 47.1175ZM102.262 47.2797C102.843 46.7195 103.126 45.9381 103.126 44.9208C103.126 43.9035 102.843 43.1221 102.262 42.5619C101.681 42.0016 100.847 41.7215 99.7453 41.7215H98.2411V48.1201H99.7453C100.832 48.1201 101.681 47.84 102.262 47.2797Z" fill="#B1B1B1"/>
<path d="M109.768 40.7632V49.0784H108.681V40.7632H109.768Z" fill="#B1B1B1"/>
<path d="M120.43 41.2057C121.056 41.5742 121.547 42.0755 121.905 42.7242C122.262 43.3729 122.441 44.1101 122.441 44.921C122.441 45.7319 122.262 46.469 121.905 47.1177C121.547 47.7664 121.056 48.2677 120.43 48.6363C119.805 49.0049 119.105 49.1818 118.33 49.1818C117.556 49.1818 116.841 49.0049 116.216 48.6363C115.59 48.2677 115.084 47.7664 114.727 47.1177C114.369 46.469 114.19 45.7319 114.19 44.921C114.19 44.1101 114.369 43.3729 114.727 42.7242C115.084 42.0755 115.575 41.5742 116.216 41.2057C116.856 40.8371 117.556 40.6602 118.33 40.6602C119.105 40.6602 119.805 40.8371 120.43 41.2057ZM116.767 42.0608C116.305 42.3261 115.948 42.6947 115.695 43.196C115.441 43.6825 115.307 44.2575 115.307 44.921C115.307 45.5697 115.441 46.1447 115.695 46.6459C115.948 47.1472 116.305 47.5158 116.767 47.7812C117.228 48.0466 117.735 48.1792 118.316 48.1792C118.881 48.1792 119.403 48.0466 119.864 47.7812C120.326 47.5158 120.683 47.1325 120.937 46.6459C121.19 46.1594 121.324 45.5844 121.324 44.9357C121.324 44.2723 121.19 43.6973 120.937 43.2107C120.683 42.7242 120.326 42.3409 119.864 42.0755C119.403 41.8101 118.896 41.6774 118.316 41.6774C117.75 41.6627 117.228 41.7954 116.767 42.0608Z" fill="#B1B1B1"/>
</svg>
